<?xml version="1.0" encoding="utf-8"?>
<!-- Generator: Adobe Illustrator 24.2.3, SVG Export Plug-In . SVG Version: 6.00 Build 0)  -->
<svg version="1.1" xmlns="http://www.w3.org/2000/svg" xmlns:xlink="http://www.w3.org/1999/xlink" x="0px" y="0px"
	 viewBox="0 0 583.2 245.16" style="enable-background:new 0 0 583.2 245.16;" xml:space="preserve">
<style type="text/css">
	.st0{fill:#FFFFFF;}
	.st1{fill:#F06C00;}
</style>
<g id="Layer_7_xA0_Image_1_">
</g>
<g id="Layer_1_copy_2_xA0_Image_1_">
</g>
<g id="D_xA0_Image_1_">
	<path class="st0" d="M102.58,68.07c0.42-0.05,0.67-0.11,0.93-0.1c8.23,0.06,16.47,0.02,24.7,0.22c3.23,0.08,6.51,0.45,9.67,1.11
		c6.26,1.3,10.45,5.01,11.86,11.41c0.38,1.74,0.54,3.55,0.56,5.33c0.13,9.22,0.23,18.44,0.24,27.67c0.01,6.57-0.1,13.14-0.25,19.7
		c-0.04,1.84-0.33,3.7-0.69,5.51c-0.82,4.19-3.35,7.08-7.36,8.39c-2.37,0.77-4.9,1.18-7.39,1.41c-2.5,0.23-5.03,0.05-7.68,0.05
		c0-4.61,0-9.29,0-14.1c1.89-0.85,2.25-2.67,2.37-4.57c0.15-2.18,0.26-4.37,0.27-6.56c0.03-10.75,0.02-21.5,0.01-32.25
		c0-1.86-0.08-3.71-0.22-5.56c-0.17-2.35-1.27-3.47-3.59-3.75c-0.85-0.1-1.71-0.1-2.73-0.15c0,10.17,0,20.24,0,30.44
		c-4.63,0-9.11,0-13.76,0c-1.17-3.33-3.51-5.71-6.96-6.89C102.58,92.94,102.58,80.6,102.58,68.07z"/>
	<path class="st0" d="M71.66,134.7c0,4.77,0,9.47,0,14.09c-2.94,0-5.78,0.07-8.61-0.03c-1.65-0.06-3.3-0.34-4.93-0.62
		c-4.42-0.76-7.31-3.35-8.55-7.62c-0.53-1.83-0.94-3.77-0.98-5.66c-0.1-5.7-0.01-11.4,0.07-17.1c0.01-0.98,0.28-1.97,0.51-2.93
		c0.9-3.64,2.98-6.33,6.48-7.81c1.46-0.62,2.96-1.14,4.45-1.71c-1.55-0.59-3.1-1.14-4.62-1.77c-2.88-1.18-4.59-3.38-5.1-6.4
		c-1-5.97-0.89-11.94,0.94-17.73c1.94-6.17,6.42-9.63,12.75-10.53c3.54-0.5,7.13-0.77,10.71-0.83C81.6,67.91,88.45,68,95.29,68
		c0.38,0,0.76,0,1.24,0c0,12.49,0,24.82,0,37.3c-3.32,1.21-5.82,3.4-7.07,7.1c-0.7,0-1.42-0.01-2.13,0
		c-4.45,0.07-8.9,0.04-13.34,0.24c-3.85,0.17-4.68,0.96-4.84,4.8c-0.17,4.17-0.12,8.36-0.01,12.54
		C69.2,131.92,69.48,133.91,71.66,134.7z M75.74,82c-0.99,0-1.79-0.05-2.58,0.01c-2.18,0.18-3.3,1.07-3.7,3.21
		c-0.75,4.01-0.49,8.04,0.12,12.05c0.2,1.31,1.05,2.14,2.38,2.32c1.22,0.17,2.45,0.22,3.78,0.34C75.74,93.82,75.74,87.96,75.74,82z"
		/>
	<path class="st0" d="M75.86,118.08c4.62,0,8.98,0,13.55,0c1.15,3.55,3.61,5.99,7.38,7.21c0,0.75,0,1.47,0,2.19
		c0,11.35,0.06,22.7-0.05,34.05c-0.02,2.1,1.47,3.45,3.6,2.99c1.23-0.27,1.93-1.09,2.04-2.36c0.03-0.4,0-0.8,0-1.19
		c0-11.15,0-22.3,0-33.45c0-0.72,0-1.45,0-2.27c3.6-1.22,6.02-3.59,7.2-7.15c4.47,0,8.82,0,13.36,0c0,0.75,0,1.4,0,2.04
		c0,13.61,0,27.21,0,40.82c0,0.86-0.08,1.72-0.08,2.59c0.01,3.09-1.36,5.44-3.76,7.32c-2.24,1.76-4.76,2.92-7.5,3.53
		c-8.78,1.97-17.52,1.81-26.16-0.79c-2.17-0.65-4.22-1.6-5.98-3.07c-2.04-1.69-3.3-3.76-3.37-6.49c-0.06-2.65-0.28-5.3-0.28-7.95
		c-0.01-12.08,0.03-24.16,0.05-36.24C75.86,119.34,75.86,118.81,75.86,118.08z"/>
	<path class="st0" d="M355.4,190.8c-3.73,0-7.36,0-11.11,0c0-8.87,0-17.72,0-26.69c6,0,11.95,0,18.04,0
		c2.97,5.79,5.96,11.61,9.11,17.73c3.31-6.1,6.45-11.9,9.63-17.76c5.73,0,11.43,0,17.26,0c0,8.88,0,17.73,0,26.7
		c-3.64,0-7.26,0-11.01,0c0-6.48,0-12.94,0-19.41c-0.12-0.05-0.23-0.09-0.35-0.14c-3.5,6.48-7.01,12.96-10.63,19.66
		c-1.42,0-2.93,0-4.44,0c-1.6,0-3.19-0.04-4.78,0.02c-0.99,0.04-1.48-0.31-1.94-1.24c-2.91-5.81-5.93-11.57-8.91-17.34
		c-0.18-0.35-0.39-0.69-0.73-1.3c-0.46,1.81-0.19,3.41-0.22,4.98c-0.03,1.66,0.02,3.32,0.04,4.98c0.02,1.59,0.05,3.19,0.06,4.78
		C355.41,187.42,355.4,189.06,355.4,190.8z"/>
	<path class="st0" d="M272.14,190.81c-0.64,0.03-1.22,0.09-1.81,0.09c-3.59,0.01-7.18-0.04-10.76,0.03
		c-1.19,0.02-1.91-0.39-2.65-1.3c-4.54-5.55-9.14-11.04-13.97-16.85c-0.21,6.15,0.15,11.99,0.26,17.97c-3.57,0-7.04,0-10.6,0
		c0-8.86,0-17.67,0-26.61c0.55-0.05,1.05-0.14,1.56-0.14c3.79-0.01,7.58,0.05,11.36-0.04c1.27-0.03,2.06,0.39,2.83,1.37
		c4.07,5.16,8.22,10.26,12.34,15.37c0.23,0.29,0.48,0.58,0.91,0.82c0.25-5.8,0.07-11.57,0.13-17.44c3.54,0,6.9,0,10.39,0
		C272.14,172.99,272.14,181.84,272.14,190.81z"/>
	<path class="st0" d="M511.09,190.68c0-8.89,0-17.69,0-26.57c0.48-0.04,0.86-0.1,1.25-0.1c6.18,0.02,12.35-0.04,18.53,0.1
		c4.12,0.09,8.22,0.51,12.14,1.93c1.36,0.49,2.67,1.15,3.95,1.82c6.63,3.52,7.17,14.35,0.31,18.72c-3.57,2.27-7.52,3.29-11.62,3.78
		c-8,0.97-16.05,0.43-24.08,0.51C511.44,190.87,511.32,190.77,511.09,190.68z M522.57,185.49c2.31,0,4.44,0.11,6.55-0.03
		c2.65-0.17,5.29-0.53,7.65-1.93c4.48-2.67,4.85-8.56,0.62-11.61c-1.2-0.87-2.7-1.57-4.14-1.79c-3-0.46-6.06-0.56-9.1-0.77
		c-0.5-0.04-1.01,0.08-1.57,0.14C522.57,174.85,522.57,180.07,522.57,185.49z"/>
	<path class="st0" d="M184.21,164.08c3.89,0,7.58,0,11.42,0c0.04,0.52,0.12,1.03,0.12,1.53c0.01,4.51-0.01,9.02,0.02,13.53
		c0.01,0.92,0.1,1.85,0.3,2.75c0.38,1.66,1.4,2.83,3.02,3.42c2.73,0.99,5.46,1.01,8.15-0.1c1.63-0.67,2.76-1.82,2.93-3.69
		c0.08-0.92,0.25-1.84,0.25-2.76c0.03-4.18,0.01-8.36,0.01-12.54c0-0.66,0-1.32,0-2.1c3.86,0,7.59,0,11.46,0
		c0.03,0.61,0.08,1.19,0.08,1.78c0.01,4.64-0.1,9.29,0.03,13.93c0.15,5.3-3.1,8.13-6.47,9.48c-5.19,2.08-10.59,2.31-16.06,1.95
		c-3.12-0.2-6.18-0.78-9.08-2.03c-2-0.86-3.79-2.04-4.87-3.93c-0.67-1.17-1.24-2.58-1.28-3.89
		C184.14,175.71,184.21,170.01,184.21,164.08z"/>
	<path class="st0" d="M500.25,164.08c0,1.71,0,3.28,0,5.04c-6.23,0-12.38,0-18.63,0c0,1.88,0,3.57,0,5.49c5.87,0,11.68,0,17.57,0
		c0,1.8,0,3.37,0,5.09c-5.84,0-11.6,0-17.52,0c0,2.03,0,3.91,0,6c6.32,0,12.67,0,19.16,0c0,1.81,0,3.43,0,5.13
		c-10.23,0-20.44,0-30.76,0c0-8.94,0-17.8,0-26.74C480.12,164.08,490.07,164.08,500.25,164.08z"/>
	<path class="st0" d="M281.62,117.07c0.63-0.14,1.25-0.4,1.88-0.4c6.71-0.03,13.42-0.02,20.13-0.01c1.83,0,1.86,0.04,1.86,1.93
		c0.01,13.21,0.01,26.42,0.01,39.63c0,1.76-0.07,1.85-1.74,1.86c-3.45,0.02-6.91,0.02-10.36,0c-1.57-0.01-1.57-0.03-2.03-1.57
		c-0.17-0.57-0.34-1.14-0.52-1.71c-0.04-0.12-0.12-0.23-0.23-0.43c-0.21,0.16-0.44,0.28-0.58,0.47c-3.24,4.35-7.69,5.66-12.85,5.02
		c-6.39-0.79-10.77-4.51-13.86-9.9c-1.78-3.09-2.72-6.52-2.82-10.07c-0.22-7.89-0.3-15.79-0.4-23.68c-0.02-1.43,0.13-1.54,1.65-1.54
		c5.85-0.02,11.69-0.02,17.54,0.01c0.5,0,1,0.24,1.49,0.37c0.01,5.91-0.02,11.82,0.03,17.72c0.02,2.39,0.18,4.77,0.32,7.15
		c0.03,0.59,0.21,1.17,0.35,1.75c0.19,0.77,0.61,1.38,1.48,1.36c0.82-0.02,1.36-0.55,1.57-1.31c0.27-0.95,0.54-1.93,0.61-2.91
		c0.16-2.18,0.25-4.37,0.29-6.56c0.05-2.51,0.01-5.01,0.01-7.57c-0.52-0.05-0.84-0.09-1.16-0.1c-0.4-0.01-0.8,0.01-1.2-0.01
		c-1.3-0.07-1.46-0.2-1.47-1.54C281.58,122.38,281.61,119.73,281.62,117.07z M303.41,118.82c-6.67,0-13.14,0-19.7,0
		c0,1.94,0,3.77,0,5.68c0.54,0.04,0.99,0.09,1.44,0.1c2.11,0.07,2.29,0.22,2.29,2.28c-0.01,3.92,0.01,7.83-0.1,11.74
		c-0.05,1.85-0.26,3.71-0.63,5.52c-0.36,1.77-1.74,2.91-3.26,3.06c-2.2,0.22-3.83-0.96-4.22-3.28c-0.27-1.63-0.4-3.3-0.42-4.95
		c-0.06-6.04-0.04-12.08-0.05-18.12c0-0.7-0.06-1.39-0.09-2.05c-4.91-0.35-15.04-0.2-16.47,0.22c-0.03,0.13-0.1,0.25-0.1,0.38
		c0.12,7.23,0.16,14.46,0.4,21.69c0.11,3.48,1.14,6.79,2.79,9.88c2.27,4.26,5.74,7.08,10.36,8.43c5.68,1.66,10.61-0.35,13.59-5.46
		c0.23-0.4,0.42-0.84,0.71-1.2c0.69-0.86,1.51-0.8,2.05,0.17c0.22,0.4,0.3,0.87,0.43,1.32c0.38,1.26,0.75,2.52,1.1,3.7
		c3.38,0,6.6,0,9.87,0C303.41,144.86,303.41,131.93,303.41,118.82z"/>
	<path class="st0" d="M168.46,123.64c1.53,0,2.89,0,4.26,0c-0.98,28.39-27.05,60.34-64.62,63.29c0-1.54,0-3.07,0-4.71
		c15.43-2,29.11-7.96,40.46-18.67C159.99,152.75,166.33,139.3,168.46,123.64z"/>
	<path class="st0" d="M28.5,123.66c1.39,0,2.76,0,4.34,0c0.18,1.02,0.36,2.11,0.56,3.19c4.11,22.38,16.45,38.57,36.82,48.65
		c6.16,3.05,12.67,5.08,19.47,6.16c0.45,0.07,0.9,0.2,1.44,0.33c0,1.54,0,3.03,0,4.77c-1.17-0.14-2.33-0.22-3.47-0.43
		C63.91,181.94,46.4,169,35.1,147.72c-3.87-7.29-5.88-15.18-6.68-23.38C28.4,124.15,28.46,123.96,28.5,123.66z"/>
	<path class="st0" d="M399.44,144.49c-1.57,0-2.96,0-4.55,0c-0.15,1.89-0.32,3.78-0.45,5.68c-0.19,2.65-0.33,5.3-0.52,7.95
		c-0.14,1.9-0.21,1.96-2.16,1.96c-5.78,0.01-11.56,0.01-17.34,0c-1.97,0-2.13-0.1-1.95-2.02c0.4-4.29,0.89-8.58,1.35-12.87
		c0.89-8.18,1.73-16.36,2.7-24.53c0.58-4.88-0.28-3.93,4.31-3.99c4.12-0.06,8.24-0.01,12.36-0.01c0.65,0,1.31,0,2.14,0
		c0.38,3.52-0.54,6.83-0.48,10.24c1.36,0,2.6,0,3.94,0c-0.2-2.34-0.4-4.58-0.59-6.82c-0.06-0.66-0.14-1.32-0.14-1.99
		c0-1.22,0.15-1.42,1.36-1.42c5.45-0.02,10.89,0.01,16.34,0.03c0.12,0,0.24,0.09,0.59,0.22c0.11,0.5,0.3,1.12,0.37,1.76
		c1.59,12.84,3.17,25.68,4.74,38.52c0.02,0.2,0.05,0.4,0.06,0.59c0.17,2.13,0.04,2.29-2.06,2.3c-5.65,0.01-11.29,0.01-16.94,0
		c-2.07,0-2.04-0.02-2.17-2.09C400.06,153.56,399.75,149.13,399.44,144.49z M400.35,118.81c0,0.64-0.03,1.16,0.01,1.68
		c0.17,2.25,0.39,4.5,0.52,6.75c0.08,1.45-0.25,1.76-1.7,1.8c-1.53,0.04-3.06,0.03-4.58,0.01c-1.69-0.02-2.02-0.34-1.92-1.98
		c0.1-1.66,0.27-3.31,0.39-4.96c0.08-1.09,0.11-2.18,0.16-3.26c-4.92,0-9.6,0-14.38,0c-1.43,13.1-2.85,26.08-4.28,39.16
		c5.78,0,11.4,0,17.19,0c0.08-0.76,0.17-1.47,0.22-2.19c0.27-3.84,0.52-7.68,0.8-11.52c0.12-1.6,0.34-1.8,1.94-1.83
		c1.53-0.03,3.06-0.02,4.58-0.01c1.91,0.01,2.16,0.25,2.27,2.16c0.16,2.72,0.3,5.43,0.48,8.15c0.12,1.76,0.3,3.52,0.44,5.2
		c5.71,0,11.2,0,16.88,0c-1.62-13.16-3.22-26.17-4.82-39.15C409.67,118.81,405.05,118.81,400.35,118.81z"/>
	<path class="st0" d="M326.61,116.79c6.82,0,13.49,0,20.46,0c0.15,4.39,0.05,8.74,0.07,13.09c0.02,4.3,0,8.6,0,12.91
		c2.22-0.09,2.92-0.51,3.18-2.35c0.32-2.23,0.52-4.49,0.56-6.73c0.09-5.04,0.05-10.09,0.07-15.13c0.01-1.86,0.05-1.9,1.89-1.91
		c5.65-0.01,11.3-0.01,16.94,0c1.83,0,1.87,0.05,1.87,1.93c0,7.24,0.04,14.47-0.07,21.71c-0.04,2.78-0.27,5.58-0.69,8.32
		c-0.98,6.31-5.22,10.32-11.55,11.05c-2.17,0.25-4.37,0.39-6.56,0.4c-7.97,0.05-15.95,0.02-23.92,0.02c-0.71,0-1.41,0-2.26,0
		C326.61,145.51,326.61,131.22,326.61,116.79z M353.09,118.81c-0.04,0.74-0.1,1.39-0.1,2.03c-0.01,3.19,0.05,6.37-0.02,9.56
		c-0.08,3.38-0.24,6.76-0.43,10.13c-0.19,3.47-2.97,4.8-5.99,4.65c-0.96-0.05-1.45-0.56-1.46-1.52c0-0.4,0.01-0.8,0.01-1.19
		c0-7.17,0-14.33,0-21.5c0-0.7,0-1.4,0-2.17c-5.63,0-10.98,0-16.43,0c0,13.11,0,26.13,0,39.23c0.53,0.02,0.92,0.06,1.3,0.06
		c7.84,0,15.67,0.03,23.51-0.02c1.79-0.01,3.59-0.18,5.35-0.45c5.95-0.89,9.17-4.14,10.09-10.12c0.18-1.18,0.35-2.37,0.37-3.56
		c0.14-7.96,0.24-15.92,0.33-23.88c0.01-0.43-0.14-0.86-0.21-1.25C363.93,118.81,358.57,118.81,353.09,118.81z"/>
	<path class="st0" d="M108.01,52.59c0-1.63,0-3.08,0-4.78c15.76,1.52,29.61,7.21,41.39,17.65c12.43,11.02,20.45,24.55,23.04,41.27
		c-1.61,0-3.03,0-4.62,0c-0.15-0.65-0.32-1.34-0.48-2.03c-5.37-22.45-18.84-38.02-40.02-47.03c-5.83-2.48-11.91-4.08-18.2-4.85
		C108.79,52.78,108.47,52.69,108.01,52.59z"/>
	<path class="st0" d="M443.48,142.88c2.46-0.33,2.91-0.63,3.2-2.72c0.29-2.1,0.46-4.22,0.51-6.34c0.1-4.98,0.09-9.96,0.13-14.94
		c0.01-0.65,0.05-1.29,0.09-2.08c6.83,0,13.5,0,20.31,0c0.08,0.43,0.25,0.86,0.24,1.29c-0.05,8.63-0.09,17.26-0.22,25.89
		c-0.02,1.72-0.24,3.45-0.58,5.14c-1.2,5.97-5.18,9.7-11.21,10.51c-1.97,0.26-3.97,0.42-5.96,0.43c-8.31,0.05-16.62,0.02-24.92,0.02
		c-0.33,0-0.67-0.01-1,0c-0.92,0.04-1.35-0.4-1.32-1.32c0.02-0.73,0.02-1.46,0.02-2.19c0-12.48,0-24.97,0-37.45c0-0.71,0-1.42,0-2.3
		c0.8-0.07,1.37-0.16,1.94-0.16c5.58-0.01,11.17-0.01,16.75,0c1.99,0,2.01,0.02,2.01,1.98c0.01,7.37,0,14.74,0,22.11
		C443.48,141.41,443.48,142.08,443.48,142.88z M424.9,158.02c0.54,0.03,0.87,0.07,1.2,0.07c7.84,0,15.68,0.03,23.52-0.02
		c1.85-0.01,3.72-0.18,5.56-0.45c5.72-0.84,8.79-3.7,9.92-9.35c0.4-2.01,0.63-4.08,0.66-6.12c0.12-7.37,0.12-14.73,0.16-22.1
		c0-0.38-0.08-0.76-0.13-1.2c-5.5,0-10.9,0-16.44,0c0,0.79,0,1.45,0,2.11c0,3.12,0.07,6.24-0.02,9.36
		c-0.1,3.51-0.31,7.02-0.52,10.53c-0.15,2.54-2.07,4.06-4.66,4.32c-2.25,0.23-2.7-0.16-2.7-2.43c0-7.24,0-14.47,0-21.71
		c0-0.71,0-1.42,0-2.2c-5.63,0-11.04,0-16.56,0C424.9,131.91,424.9,144.88,424.9,158.02z"/>
	<path class="st0" d="M33.5,106.75c-1.52,0-2.95,0-4.59,0c2.37-15.37,9.39-28.11,20.35-38.8C60.91,56.59,74.9,50.14,91.13,48.02
		c0,1.7,0,3.2,0,4.8c-2.55,0.56-5.16,1-7.7,1.71c-22.83,6.39-39.1,20.1-47.28,42.69c-0.94,2.61-1.51,5.35-2.25,8.03
		C33.76,105.74,33.63,106.24,33.5,106.75z"/>
	<path class="st0" d="M493.69,142.92c2.51-0.46,2.94-0.76,3.22-2.85c0.27-2.03,0.43-4.09,0.47-6.14c0.09-4.98,0.08-9.96,0.12-14.93
		c0.01-0.71,0.07-1.41,0.11-2.23c6.88,0,13.55,0,20.36,0c0.07,0.6,0.18,1.11,0.18,1.61c-0.01,7.57,0.03,15.14-0.09,22.7
		c-0.04,2.71-0.24,5.45-0.74,8.11c-1.12,5.95-5.21,9.67-11.24,10.44c-2.04,0.26-4.1,0.41-6.16,0.42
		c-8.17,0.05-16.35,0.02-24.52,0.02c-0.4,0-0.8-0.01-1.2,0c-0.82,0.01-1.24-0.37-1.22-1.2c0.01-0.73,0.01-1.46,0.01-2.19
		c0-12.35,0-24.7,0-37.05c0-0.4-0.01-0.8,0-1.2c0.03-1.73,0.06-1.78,1.81-1.78c5.71-0.01,11.43-0.01,17.14,0
		c1.68,0,1.74,0.07,1.74,1.85c0.01,7.44,0,14.87,0,22.31C493.69,141.48,493.69,142.14,493.69,142.92z M475.13,118.78
		c0,13.2,0,26.18,0,39.23c0.58,0.03,1.03,0.08,1.49,0.08c7.71,0,15.41,0.03,23.12-0.02c1.85-0.01,3.72-0.18,5.56-0.44
		c5.8-0.82,8.98-3.74,10-9.48c0.49-2.73,0.69-5.54,0.74-8.31c0.12-6.5,0.07-13.01,0.08-19.52c0-0.5-0.1-1-0.16-1.51
		c-5.5,0-10.85,0-16.42,0c0,0.75,0,1.4,0,2.05c0,3.12,0.07,6.24-0.02,9.36c-0.09,3.51-0.3,7.02-0.49,10.53
		c-0.14,2.57-2.07,4.17-4.79,4.42c-2.14,0.19-2.56-0.18-2.56-2.36c0-7.3,0-14.6,0-21.91c0-0.7-0.05-1.4-0.08-2.12
		C486,118.78,480.63,118.78,475.13,118.78z"/>
	<path class="st0" d="M541.93,96.93c0.4-2.54,0.79-5.09,1.2-7.63c0.81-4.98,1.63-9.95,2.47-14.92c0.24-1.41,0.4-1.56,1.79-1.56
		c5.32-0.02,10.63-0.02,15.95,0c1.62,0.01,1.97,0.44,1.6,2.1c-0.56,2.46-1.2,4.9-1.8,7.34c-2.38,9.66-4.75,19.32-7.12,28.98
		c-0.45,1.83-0.46,1.84-2.38,1.84c-7.91,0-15.82,0-23.73,0c-1.85,0-1.86-0.01-2.27-1.75c-2.79-11.81-5.58-23.62-8.36-35.44
		c-0.09-0.39-0.19-0.78-0.24-1.17c-0.22-1.55,0.06-1.9,1.63-1.91c5.25-0.02,10.5-0.01,15.75,0c1.71,0,1.75,0.05,2,1.74
		c1.04,7.16,2.07,14.31,3.11,21.47c0.04,0.3,0.11,0.59,0.17,0.89C541.77,96.92,541.85,96.93,541.93,96.93z M536.29,74.92
		c-5.09,0-9.93,0-14.97,0c2.85,12.09,5.67,24.07,8.5,36.05c8.12,0,16.06,0,24.02,0c2.96-12.06,5.89-24.01,8.85-36.12
		c-5.18,0.01-10.06-0.02-15.03,0.02c-1.13,7.08-2.24,13.88-3.29,20.7c-0.58,3.74-1.04,7.49-1.57,11.23
		c-0.08,0.6-0.22,1.36-0.95,1.26c-0.44-0.06-0.85-0.66-1.18-1.1c-0.18-0.24-0.18-0.63-0.22-0.96c-0.7-5.73-1.34-11.46-2.1-17.18
		C537.74,84.24,536.99,79.66,536.29,74.92z"/>
	<path class="st0" d="M371.49,113.01c-6.86,0-13.49,0-20.36,0c-0.06-0.68-0.15-1.31-0.15-1.94c-0.03-4.65-0.02-9.29-0.07-13.94
		c-0.02-1.46-0.09-2.92-0.3-4.36c-0.31-2.12-0.86-2.54-3.44-2.8c-0.06,7.61,0.01,15.19-0.04,22.72c-1.55,0.47-18.16,0.58-20.64,0.13
		c0-0.59,0-1.23,0-1.87c0-12.02,0-24.03,0-36.05c0-2.08,0.01-2.09,2.1-2.09c6.51,0.01,13.03-0.09,19.53,0.08
		c3.57,0.1,7.18,0.4,10.68,1.08c6.81,1.32,10.79,5.8,12.04,12.46c0.66,3.56,0.7,7.26,0.8,10.9c0.13,4.71,0.04,9.43,0.03,14.14
		C371.66,111.93,371.56,112.37,371.49,113.01z M345,110.99c0.04-0.47,0.09-0.86,0.09-1.24c0.01-2.66,0.01-5.31,0.01-7.97
		c0-3.98-0.01-7.97,0-11.95c0.01-1.71,0.26-1.94,1.97-1.96c0.46-0.01,0.93,0.01,1.39,0.05c2.31,0.23,3.78,1.52,4.16,3.85
		c0.22,1.37,0.29,2.77,0.3,4.16c0.05,4.45,0.04,8.89,0.06,13.34c0,0.57,0.07,1.14,0.11,1.69c5.59,0,11,0,16.55,0
		c0-4.24,0.09-8.34-0.03-12.44c-0.1-3.58-0.14-7.2-0.75-10.71c-1.24-7.16-5.01-10.64-11.4-11.87c-2.02-0.39-4.07-0.69-6.12-0.74
		c-7.17-0.18-14.34-0.24-21.51-0.34c-0.38-0.01-0.76,0.08-1.12,0.12c-0.38,2.59-0.27,34.62,0.12,36.01
		C334.19,110.99,339.55,110.99,345,110.99z"/>
	<path class="st0" d="M467.86,112.98c-6.88,0-13.57,0-20.55,0c0-0.81,0.01-1.52,0-2.22c-0.06-5.31-0.11-10.62-0.18-15.93
		c-0.01-0.66-0.04-1.33-0.14-1.99c-0.33-2.11-1.04-2.69-3.56-2.84c0,7.61,0,15.2,0,22.94c-6.9,0-13.58,0-20.44,0
		c-0.07-0.48-0.21-0.98-0.21-1.48c-0.01-12.29-0.02-24.57-0.01-36.86c0-1.65,0.1-1.8,1.62-1.79c8.5,0.1,17.01,0.21,25.51,0.39
		c1.71,0.04,3.44,0.34,5.12,0.7c6.98,1.49,11.67,6.67,12.38,13.79c0.35,3.5,0.48,7.02,0.55,10.53c0.09,4.31,0.02,8.63,0.01,12.95
		C467.96,111.71,467.9,112.23,467.86,112.98z M465.93,111.02c0-2.26,0.05-4.32-0.01-6.37c-0.15-5.3-0.01-10.64-0.59-15.9
		c-0.81-7.35-4.71-11.57-11.59-12.8c-2.02-0.36-4.08-0.68-6.12-0.73c-7.17-0.18-14.34-0.24-21.52-0.34
		c-0.38-0.01-0.76,0.08-1.21,0.13c0,12.04,0,23.96,0,36.1c5.55-0.02,11.01,0.03,16.57-0.03c0-0.94,0-1.59,0-2.25
		c0-6.17,0-12.35,0-18.52c0-0.46-0.09-0.97,0.06-1.38c0.14-0.38,0.49-0.82,0.85-0.95c1.78-0.64,4.73,0.19,5.72,1.8
		c0.59,0.96,0.95,2.22,0.98,3.35c0.17,5.24,0.19,10.48,0.27,15.73c0.01,0.71,0,1.41,0,2.18
		C454.96,111.02,460.32,111.02,465.93,111.02z"/>
	<path class="st0" d="M462.29,164.14c0,1.79,0,3.42,0,5.19c-3.47,0-6.84,0-10.42,0c0,7.18,0,14.23,0,21.42c-3.95,0-7.68,0-11.54,0
		c0-7.09,0-14.1,0-21.34c-3.52,0-6.93,0-10.45,0c0-1.85,0-3.48,0-5.13C431.19,163.93,458.69,163.77,462.29,164.14z"/>
	<path class="st0" d="M518.15,113.01c-7.02,0-13.64,0-20.5,0c-0.06-0.76-0.15-1.45-0.15-2.14c-0.06-5.31-0.1-10.62-0.16-15.93
		c-0.01-0.66-0.03-1.33-0.13-1.99c-0.32-2.16-0.94-2.71-3.49-2.98c0,7.6,0,15.18,0,22.68c-1.57,0.51-18.19,0.62-20.56,0.18
		c-0.05-0.46-0.16-0.96-0.16-1.47c-0.01-12.22-0.01-24.43-0.01-36.65c0-1.83,0.07-1.9,1.91-1.9c6.58,0,13.16-0.09,19.73,0.08
		c3.5,0.09,7.05,0.37,10.49,1.03c7.1,1.36,11.83,6.68,12.51,13.86c0.34,3.56,0.44,7.15,0.51,10.73c0.08,4.11,0.02,8.23,0.01,12.35
		C518.15,111.52,518.15,112.16,518.15,113.01z M516.13,111c-0.1-7.71,0.5-15.31-0.64-22.8c-1.08-7.1-4.75-11.04-11.69-12.3
		c-1.89-0.34-3.81-0.64-5.73-0.69c-7.24-0.18-14.48-0.25-21.72-0.35c-0.38-0.01-0.77,0.05-1.22,0.09c0,12.08,0,24.05,0,36.02
		c5.55,0,10.96,0,16.53,0c0-0.78,0-1.43,0-2.08c0-6.17,0-12.35,0-18.52c0-0.46-0.09-0.96,0.05-1.38c0.13-0.39,0.44-0.87,0.79-1.01
		c1.96-0.78,5.16,0.33,6.1,2.22c0.45,0.91,0.65,2.03,0.68,3.06c0.13,5.17,0.17,10.35,0.24,15.53c0.01,0.71,0,1.42,0,2.22
		C505.12,111,510.47,111,516.13,111z"/>
	<path class="st0" d="M294.94,185.6c6.11,0,11.86,0,17.7,0c0,1.78,0,3.41,0,5.17c-9.7,0-19.37,0-29.12,0c0-8.86,0-17.67,0-26.63
		c3.73,0,7.48,0,11.42,0C294.94,171.2,294.94,178.28,294.94,185.6z"/>
	<path class="st0" d="M280.79,112.97c-6.97,0-13.65,0-20.51,0c-0.07-0.51-0.21-1.01-0.2-1.51c0.1-6.23,0.2-12.46,0.36-18.69
		c0.04-1.59,0.31-3.17,0.47-4.75c0.76-7.8,8.65-16.39,18.06-16.87c3.52-0.18,7.07-0.38,10.48,0.66c8.42,2.55,13.71,8,15.21,16.84
		c0.94,5.59,0.87,11.23,0.83,16.87c-0.01,1.27-0.24,1.44-1.79,1.44c-5.11,0.01-10.22,0-15.34,0c-0.66,0-1.33,0.02-1.99,0
		c-1.4-0.05-1.57-0.2-1.59-1.64c-0.03-3.12,0.01-6.24-0.06-9.35c-0.04-1.92-0.19-3.84-0.34-5.75c-0.04-0.51-0.18-1.06-0.42-1.51
		c-0.58-1.06-1.79-1.04-2.33,0.05c-0.29,0.58-0.44,1.26-0.48,1.91c-0.15,2.71-0.3,5.43-0.33,8.14c-0.05,3.98-0.01,7.96-0.01,11.94
		C280.79,111.4,280.79,112.05,280.79,112.97z M303.44,104.9c0.1-6.19,0.03-12.14-1.44-17.99c-1.21-4.83-4.12-8.4-8.37-10.91
		c-3.77-2.23-7.9-2.92-12.24-2.87c-10.37,0.12-17.87,7.86-18.64,17.15c-0.54,6.56-0.7,13.11-0.66,19.68c0,0.32,0.06,0.63,0.09,0.92
		c2.29,0.38,15.08,0.3,16.59-0.11c0-0.7,0-1.42,0-2.14c0.02-5.24,0-10.48,0.07-15.72c0.02-1.39,0.16-2.79,0.42-4.15
		c0.37-1.92,1.75-2.92,3.7-2.87c1.85,0.05,3.03,1.04,3.39,2.98c0.18,0.97,0.29,1.97,0.31,2.96c0.07,3.71,0.09,7.43,0.13,11.14
		c0.01,0.63,0.07,1.26,0.11,1.93C292.47,104.9,297.83,104.9,303.44,104.9z"/>
	<path class="st0" d="M396.46,111.07c-0.15,0.63-0.31,1.26-0.49,2.02c-1.29,0-2.47,0-3.66,0c-4.18,0-8.37,0-12.55,0
		c-2.06,0-2.23-0.16-2.03-2.1c0.4-3.83,0.83-7.65,1.25-11.47c0.76-6.92,1.52-13.84,2.28-20.76c0.15-1.38,0.29-2.77,0.45-4.15
		c0.2-1.7,0.26-1.77,1.94-1.77c5.31-0.01,10.63,0,15.94,0c3.19,0,6.38-0.01,9.56,0c1.63,0.01,1.69,0.05,1.89,1.61
		c0.85,6.84,1.68,13.69,2.52,20.54c0.61,4.94,1.23,9.87,1.82,14.81c0.12,0.97,0.13,1.95,0.19,2.88c-1.48,0.51-14.67,0.67-17.91,0.26
		c-0.15-0.71-0.31-1.48-0.48-2.24c-0.05-1.1-0.1-2.21-0.16-3.31c-0.04-0.47-0.09-0.95-0.13-1.42c0.07,0,0.14,0,0.21,0
		c-0.06,0.54-0.13,1.08-0.19,1.62C396.76,108.73,396.61,109.9,396.46,111.07z M413.38,111.03c-1.5-12.16-2.97-24.12-4.44-36.08
		c-8.46,0-16.68,0-25.11,0c-1.31,12.03-2.61,23.99-3.92,36.01c4.93,0,9.61,0,14.34,0c0.07-0.72,0.13-1.31,0.19-1.9
		c0.48-4.49,0.96-8.97,1.46-13.46c0.1-0.9,0.05-1.97,1.29-2.17c0.71-0.11,1.06,0.62,1.16,2.18c0.3,4.57,0.61,9.14,0.93,13.71
		c0.04,0.57,0.19,1.13,0.3,1.71C404.16,111.03,408.6,111.03,413.38,111.03z"/>
	<path class="st0" d="M184.26,138.38c0-6.57,0-13.14,0-19.7c0-2,0.02-2.02,1.97-2.02c13.01-0.01,26.03,0.03,39.04-0.05
		c1.5-0.01,2.13,0.62,2.66,1.82c1.13,2.6,1.66,5.36,1.68,8.14c0.05,6.56-0.12,13.12-0.25,19.68c-0.02,1.05-0.23,2.11-0.45,3.15
		c-1.16,5.54-4.05,9.55-11,10.21c-2.51,0.24-5.03,0.43-7.55,0.45c-7.9,0.06-15.8,0.02-23.7,0.02c-0.33,0-0.67-0.02-1,0
		c-1.01,0.07-1.48-0.37-1.42-1.4c0.04-0.66,0.02-1.33,0.02-1.99C184.26,150.59,184.26,144.48,184.26,138.38z M203.72,118.67
		c-5.76,0-11.51,0-17.22,0c-0.42,2.84-0.3,37.98,0.1,39.36c0.25,0.02,0.52,0.06,0.78,0.06c7.7,0,15.41,0.07,23.11-0.04
		c2.91-0.04,5.83-0.41,8.71-0.84c3.37-0.51,5.72-2.49,6.77-5.73c0.63-1.94,1.22-3.98,1.31-5.99c0.26-5.83,0.33-11.67,0.33-17.5
		c0-1.84-0.38-3.7-0.75-5.51c-0.26-1.27-0.8-2.48-1.24-3.79c-6.96,0-13.73,0-20.5,0C204.65,118.67,204.19,118.67,203.72,118.67z"/>
	<path class="st0" d="M184.38,113.09c-0.05-0.88-0.12-1.45-0.12-2.03c-0.01-12.08-0.01-24.16-0.01-36.24c0-1.98,0.01-1.99,2.01-2
		c6.84-0.01,13.69-0.07,20.53,0.03c2.51,0.04,5.03,0.35,7.52,0.72c6.74,1.01,10.64,5.24,12.61,11.5c1.02,3.25,1.28,6.64,1.36,10.03
		c0.08,3.78,0.32,7.59-0.58,11.3c-0.35,1.45-0.98,2.9-1.81,4.14c-1.18,1.78-2.86,2.64-5.2,2.61c-11.29-0.11-22.58-0.05-33.88-0.05
		C186.08,113.09,185.36,113.09,184.38,113.09z M186.33,110.96c0.42,0.06,0.67,0.13,0.92,0.13c11.22,0.01,22.45,0,33.67,0.02
		c0.94,0,1.66-0.34,2.34-0.91c1.46-1.22,2.17-2.9,2.39-4.68c0.34-2.75,0.54-5.54,0.58-8.32c0.06-3.86-0.3-7.7-1.43-11.41
		c-1.71-5.64-5.32-9.26-11.29-10.15c-2.56-0.38-5.14-0.71-7.72-0.75c-5.97-0.11-11.95-0.04-17.93-0.03c-0.5,0-1.01,0.1-1.54,0.16
		C186.33,87.04,186.33,98.91,186.33,110.96z"/>
	<path class="st0" d="M332.78,190.79c-3.68,0-7.38,0-11.21,0c0-8.86,0-17.7,0-26.67c3.7,0,7.39,0,11.21,0
		C332.78,172.96,332.78,181.82,332.78,190.79z"/>
	<path class="st0" d="M421.22,190.79c-3.77,0-7.46,0-11.29,0c0-8.86,0-17.7,0-26.67c3.7,0,7.44,0,11.29,0
		C421.22,173.01,421.22,181.85,421.22,190.79z"/>
	<path class="st0" d="M532.05,143.44c0-3.85-0.05-7.7,0.02-11.55c0.04-2.41-0.16-4.75-0.83-7.08c-0.56-1.97-0.98-3.99-1.39-6.01
		c-0.37-1.82-0.09-2.16,1.69-2.16c6.84-0.01,13.68-0.01,20.53,0c1.78,0,2.06,0.37,1.64,2.17c-0.61,2.65-1.31,5.27-1.91,7.92
		c-0.22,0.96-0.37,1.96-0.37,2.94c-0.03,9.36-0.02,18.72-0.01,28.07c0,0.4,0.02,0.8,0,1.19c-0.03,0.71-0.39,1.1-1.12,1.11
		c-0.27,0-0.53,0-0.8,0c-5.18,0-10.36,0.01-15.54,0c-1.83,0-1.92-0.1-1.92-1.9c-0.01-4.91,0-9.82,0-14.73
		C532.05,143.44,532.05,143.44,532.05,143.44z M549.41,158c0-0.95,0-1.67,0-2.39c0-8.76-0.02-17.52,0.02-26.29
		c0.01-1.38,0.22-2.77,0.5-4.12c0.43-2.12,0.99-4.21,1.51-6.37c-6.53,0-12.86,0-19.32,0c0.33,1.44,0.59,2.73,0.93,4.01
		c0.77,2.9,1.1,5.83,1.06,8.85c-0.1,8.03-0.03,16.06-0.03,24.1c0,0.71,0,1.42,0,2.22C539.25,158,544.21,158,549.41,158z"/>
	<path class="st0" d="M234.47,138.24c0-6.5,0-13,0-19.5c0-2.07,0.01-2.08,2.11-2.08c5.51-0.01,11.02-0.01,16.53,0
		c2.05,0,2.06,0.01,2.07,2.14c0.01,13.13,0.01,26.26,0.01,39.4c0,1.79-0.08,1.88-1.93,1.88c-5.64,0.01-11.28,0.01-16.93,0
		c-1.81,0-1.86-0.07-1.86-1.94C234.46,151.5,234.46,144.87,234.47,138.24C234.46,138.24,234.47,138.24,234.47,138.24z
		 M253.05,118.84c-5.62,0-11.03,0-16.44,0c0,13.12,0,26.09,0,39.14c5.53,0,10.93,0,16.44,0
		C253.05,144.91,253.05,131.94,253.05,118.84z"/>
	<path class="st0" d="M254.98,113.01c-6.85,0-13.47,0-20.33,0c-0.06-0.59-0.18-1.15-0.18-1.71c-0.01-12.21-0.01-24.42-0.01-36.64
		c0-1.75,0.08-1.84,1.76-1.84c5.71-0.01,11.43-0.01,17.14,0c1.71,0,1.81,0.11,1.81,1.81c0.01,12.28,0,24.56-0.01,36.84
		C255.16,111.91,255.06,112.36,254.98,113.01z M236.63,74.96c0,12.08,0,24.04,0,36c5.55,0,10.96,0,16.41,0c0-12.06,0-23.98,0-36
		C247.52,74.96,242.11,74.96,236.63,74.96z"/>
	<path class="st1" d="M102.03,65.56c-1.96,0-3.79,0-5.74,0c0-9.67,0-19.26,0-29.05c1.83-0.42,3.72-0.06,5.74-0.23
		C102.03,46.12,102.03,55.76,102.03,65.56z"/>
	<path class="st1" d="M99.21,108.17c4.04,0,7.27,3.14,7.3,7.09c0.02,3.92-3.21,7.2-7.19,7.27c-3.99,0.07-7.45-3.31-7.43-7.26
		C91.91,111.35,95.18,108.17,99.21,108.17z"/>
	<path class="st1" d="M154.48,117.95c0-1.9,0-3.67,0-5.56c8.59,0,17.11,0,25.75,0c0,1.85,0,3.67,0,5.56
		C171.61,117.95,163.08,117.95,154.48,117.95z"/>
	<path class="st1" d="M18.12,117.96c0-1.86,0-3.62,0-5.39c1.43-0.4,21.62-0.55,25.69-0.18c0,1.8,0,3.62,0,5.56
		C35.28,117.96,26.75,117.96,18.12,117.96z"/>
	<path class="st1" d="M102.03,197.66c-1.98,0-3.8,0-5.74,0c0-6.23,0-12.35,0-18.59c1.93,0,3.76,0,5.74,0
		C102.03,185.24,102.03,191.37,102.03,197.66z"/>
	<path class="st1" d="M303.41,118.82c0,13.12,0,26.05,0,39.13c-3.27,0-6.49,0-9.87,0c-0.35-1.19-0.72-2.45-1.1-3.7
		c-0.13-0.44-0.21-0.92-0.43-1.32c-0.54-0.97-1.36-1.04-2.05-0.17c-0.29,0.36-0.47,0.8-0.71,1.2c-2.98,5.1-7.91,7.11-13.59,5.46
		c-4.62-1.35-8.09-4.17-10.36-8.43c-1.65-3.09-2.67-6.4-2.79-9.88c-0.24-7.23-0.28-14.46-0.4-21.69c0-0.13,0.06-0.25,0.1-0.38
		c1.43-0.42,11.55-0.57,16.47-0.22c0.03,0.66,0.08,1.36,0.09,2.05c0.02,6.04,0,12.08,0.05,18.12c0.02,1.65,0.15,3.32,0.42,4.95
		c0.39,2.32,2.01,3.5,4.22,3.28c1.52-0.15,2.9-1.29,3.26-3.06c0.36-1.81,0.57-3.67,0.63-5.52c0.11-3.91,0.09-7.83,0.1-11.74
		c0.01-2.06-0.18-2.22-2.29-2.28c-0.45-0.01-0.9-0.06-1.44-0.1c0-1.92,0-3.74,0-5.68C290.27,118.82,296.75,118.82,303.41,118.82z"/>
	<path class="st1" d="M400.35,118.81c4.69,0,9.32,0,14.2,0c1.6,12.98,3.2,25.99,4.82,39.15c-5.67,0-11.16,0-16.88,0
		c-0.14-1.68-0.32-3.44-0.44-5.2c-0.18-2.71-0.32-5.43-0.48-8.15c-0.12-1.91-0.36-2.15-2.27-2.16c-1.53-0.01-3.06-0.02-4.58,0.01
		c-1.6,0.03-1.82,0.22-1.94,1.83c-0.29,3.84-0.53,7.68-0.8,11.52c-0.05,0.72-0.14,1.43-0.22,2.19c-5.79,0-11.41,0-17.19,0
		c1.43-13.08,2.85-26.06,4.28-39.16c4.78,0,9.46,0,14.38,0c-0.05,1.08-0.08,2.17-0.16,3.26c-0.12,1.65-0.29,3.31-0.39,4.96
		c-0.1,1.64,0.23,1.96,1.92,1.98c1.53,0.02,3.06,0.03,4.58-0.01c1.45-0.03,1.77-0.35,1.7-1.8c-0.12-2.25-0.35-4.5-0.52-6.75
		C400.32,119.97,400.35,119.45,400.35,118.81z"/>
	<path class="st1" d="M353.09,118.81c5.49,0,10.84,0,16.35,0c0.07,0.39,0.21,0.82,0.21,1.25c-0.1,7.96-0.19,15.92-0.33,23.88
		c-0.02,1.19-0.19,2.38-0.37,3.56c-0.92,5.98-4.14,9.23-10.09,10.12c-1.77,0.26-3.57,0.44-5.35,0.45
		c-7.84,0.05-15.67,0.02-23.51,0.02c-0.39,0-0.78-0.03-1.3-0.06c0-13.1,0-26.11,0-39.23c5.45,0,10.8,0,16.43,0c0,0.76,0,1.46,0,2.17
		c0,7.17,0,14.33,0,21.5c0,0.4-0.01,0.8-0.01,1.19c0.01,0.96,0.5,1.47,1.46,1.52c3.02,0.15,5.8-1.18,5.99-4.65
		c0.18-3.38,0.35-6.75,0.43-10.13c0.07-3.18,0.01-6.37,0.02-9.56C352.99,120.19,353.05,119.55,353.09,118.81z"/>
	<path class="st1" d="M424.9,158.02c0-13.13,0-26.11,0-39.2c5.52,0,10.92,0,16.56,0c0,0.78,0,1.49,0,2.2c0,7.24,0,14.47,0,21.71
		c0,2.27,0.45,2.66,2.7,2.43c2.59-0.27,4.5-1.78,4.66-4.32c0.21-3.51,0.42-7.02,0.52-10.53c0.09-3.12,0.02-6.24,0.02-9.36
		c0-0.66,0-1.31,0-2.11c5.54,0,10.95,0,16.44,0c0.05,0.44,0.13,0.82,0.13,1.2c-0.04,7.37-0.04,14.74-0.16,22.1
		c-0.03,2.05-0.26,4.12-0.66,6.12c-1.13,5.65-4.2,8.52-9.92,9.35c-1.84,0.27-3.7,0.44-5.56,0.45c-7.84,0.05-15.68,0.02-23.52,0.02
		C425.77,158.09,425.44,158.05,424.9,158.02z"/>
	<path class="st1" d="M475.13,118.78c5.5,0,10.86,0,16.46,0c0.03,0.72,0.08,1.42,0.08,2.12c0.01,7.3,0,14.6,0,21.91
		c0,2.18,0.42,2.55,2.56,2.36c2.73-0.24,4.65-1.85,4.79-4.42c0.19-3.51,0.4-7.02,0.49-10.53c0.08-3.12,0.02-6.24,0.02-9.36
		c0-0.65,0-1.29,0-2.05c5.57,0,10.92,0,16.42,0c0.05,0.51,0.16,1.01,0.16,1.51c-0.01,6.51,0.04,13.01-0.08,19.52
		c-0.05,2.78-0.25,5.58-0.74,8.31c-1.02,5.74-4.2,8.67-10,9.48c-1.84,0.26-3.7,0.43-5.56,0.44c-7.71,0.05-15.41,0.02-23.12,0.02
		c-0.46,0-0.91-0.05-1.49-0.08C475.13,144.96,475.13,131.98,475.13,118.78z"/>
	<path class="st1" d="M536.29,74.92c0.71,4.74,1.45,9.32,2.06,13.91c0.76,5.72,1.4,11.46,2.1,17.18c0.04,0.33,0.04,0.72,0.22,0.96
		c0.33,0.43,0.74,1.04,1.18,1.1c0.73,0.1,0.87-0.66,0.95-1.26c0.52-3.74,0.99-7.5,1.57-11.23c1.05-6.82,2.16-13.62,3.29-20.7
		c4.97-0.04,9.85-0.01,15.03-0.02c-2.97,12.11-5.9,24.06-8.85,36.12c-7.96,0-15.9,0-24.02,0c-2.82-11.97-5.65-23.96-8.5-36.05
		C526.36,74.92,531.2,74.92,536.29,74.92z"/>
	<path class="st1" d="M345,110.99c-5.45,0-10.81,0-16.16,0c-0.38-1.39-0.5-33.42-0.12-36.01c0.35-0.04,0.73-0.13,1.12-0.12
		c7.17,0.1,14.34,0.16,21.51,0.34c2.05,0.05,4.11,0.35,6.12,0.74c6.39,1.22,10.16,4.71,11.4,11.87c0.61,3.51,0.64,7.13,0.75,10.71
		c0.12,4.1,0.03,8.21,0.03,12.44c-5.56,0-10.97,0-16.55,0c-0.04-0.55-0.1-1.12-0.11-1.69c-0.02-4.45-0.01-8.89-0.06-13.34
		c-0.02-1.39-0.08-2.79-0.3-4.16c-0.38-2.32-1.85-3.61-4.16-3.85c-0.46-0.05-0.93-0.06-1.39-0.05c-1.71,0.02-1.96,0.25-1.97,1.96
		c-0.02,3.98,0,7.97,0,11.95c0,2.66,0,5.31-0.01,7.97C345.09,110.14,345.04,110.52,345,110.99z"/>
	<path class="st1" d="M465.93,111.02c-5.61,0-10.96,0-16.58,0c0-0.77,0.01-1.47,0-2.18c-0.07-5.24-0.1-10.49-0.27-15.73
		c-0.04-1.14-0.39-2.39-0.98-3.35c-0.99-1.62-3.94-2.44-5.72-1.8c-0.36,0.13-0.71,0.57-0.85,0.95c-0.15,0.41-0.06,0.92-0.06,1.38
		c0,6.17,0,12.35,0,18.52c0,0.66,0,1.31,0,2.25c-5.56,0.07-11.02,0.02-16.57,0.03c0-12.15,0-24.07,0-36.1
		c0.46-0.05,0.84-0.14,1.21-0.13c7.17,0.1,14.35,0.16,21.52,0.34c2.05,0.05,4.1,0.37,6.12,0.73c6.87,1.24,10.78,5.45,11.59,12.8
		c0.58,5.26,0.44,10.6,0.59,15.9C465.97,106.7,465.93,108.75,465.93,111.02z"/>
	<path class="st1" d="M516.13,111c-5.66,0-11.01,0-16.59,0c0-0.8,0.01-1.51,0-2.22c-0.07-5.18-0.11-10.35-0.24-15.53
		c-0.03-1.03-0.23-2.15-0.68-3.06c-0.94-1.89-4.14-3-6.1-2.22c-0.35,0.14-0.66,0.62-0.79,1.01c-0.14,0.42-0.05,0.92-0.05,1.38
		c0,6.17,0,12.35,0,18.52c0,0.65,0,1.3,0,2.08c-5.57,0-10.98,0-16.53,0c0-11.97,0-23.94,0-36.02c0.46-0.03,0.84-0.09,1.22-0.09
		c7.24,0.1,14.48,0.17,21.72,0.35c1.91,0.05,3.84,0.35,5.73,0.69c6.94,1.25,10.61,5.19,11.69,12.3
		C516.63,95.7,516.03,103.29,516.13,111z"/>
	<path class="st1" d="M303.44,104.9c-5.61,0-10.97,0-16.54,0c-0.04-0.67-0.1-1.3-0.11-1.93c-0.05-3.71-0.06-7.43-0.13-11.14
		c-0.02-0.99-0.13-1.99-0.31-2.96c-0.36-1.94-1.54-2.94-3.39-2.98c-1.95-0.05-3.33,0.95-3.7,2.87c-0.26,1.36-0.4,2.76-0.42,4.15
		c-0.06,5.24-0.05,10.48-0.07,15.72c0,0.72,0,1.45,0,2.14c-1.51,0.41-14.3,0.49-16.59,0.11c-0.03-0.29-0.09-0.6-0.09-0.92
		c-0.03-6.57,0.12-13.12,0.66-19.68c0.77-9.29,8.28-17.03,18.64-17.15c4.34-0.05,8.46,0.64,12.24,2.87
		c4.25,2.51,7.15,6.08,8.37,10.91C303.47,92.75,303.55,98.71,303.44,104.9z"/>
	<path class="st1" d="M413.38,111.03c-4.78,0-9.22,0-13.81,0c-0.1-0.58-0.26-1.14-0.3-1.71c-0.32-4.57-0.63-9.14-0.93-13.71
		c-0.1-1.56-0.45-2.3-1.16-2.18c-1.24,0.2-1.19,1.27-1.29,2.17c-0.5,4.48-0.97,8.97-1.46,13.46c-0.06,0.59-0.12,1.17-0.19,1.9
		c-4.73,0-9.41,0-14.34,0c1.31-12.02,2.61-23.98,3.92-36.01c8.43,0,16.65,0,25.11,0C410.41,86.91,411.89,98.87,413.38,111.03z"/>
	<path class="st1" d="M201.89,118.67c6.77,0,16.77,0.01,23.73,0.01c0.44,1.31,0.98,2.52,1.24,3.79c0.37,1.81,0.75,3.67,0.75,5.51
		c0,5.83-0.06,11.67-0.33,17.5c-0.09,2.02-0.68,4.05-1.31,5.99c-1.06,3.24-3.41,5.22-6.77,5.73c-2.88,0.43-5.8,0.8-8.71,0.84
		c-7.7,0.12-15.41,0.05-23.11,0.04c-0.26,0-0.53-0.04-0.78-0.06c-0.4-1.39-0.52-36.52-0.1-39.36c5.71,0,13.57,0,19.32,0
		c-2.55,3.95-4.28,2.47-2.89,2.75c0.03,7.09,0.02,14.18,0.02,21.27c0,2.33,0.39,2.69,2.64,2.41c0.39-0.05,0.79-0.1,1.18-0.18
		c2.25-0.45,3.46-1.64,3.88-3.93c0.19-1.04,0.31-2.1,0.32-3.15c0.04-3.98,0.04-7.95,0-11.93c-0.01-1.12-1.11-2.28-1.25-3.39
		c-0.22-1.71-2.31-1.09-3.92-1.55C204.91,120.72,202.76,118.9,201.89,118.67z"/>
	<path class="st0" d="M205.27,119.97c1.4-0.04,1.68,0.02,2.55,0.27c1.61,0.46,2.69,1.45,2.91,3.16c0.14,1.11,0.25,1.74,0.26,2.86
		c0.04,3.98,0.01,8.61-0.03,12.59c-0.01,1.05-0.13,2.12-0.32,3.15c-0.42,2.29-1.63,3.48-3.88,3.93c-0.39,0.08-0.79,0.13-1.18,0.18
		c-2.25,0.27-2.64-0.08-2.64-2.41c0-7.09,0.01-14.18-0.02-21.27c0-1.02-0.08-1.49,0.61-2.28
		C204.01,120.05,204.8,119.97,205.27,119.97z M205.04,143.83c2.68-0.21,3.23-0.62,3.61-3.08c0.22-1.43,0.33-2.9,0.32-4.35
		c-0.02-3.71,0.01-7.43-0.27-11.13c-0.2-2.66-0.77-2.95-3.65-3.1C205.04,129.4,205.04,136.61,205.04,143.83z"/>
	<path class="st1" d="M186.33,110.96c0-12.06,0-23.92,0-35.94c0.54-0.06,1.04-0.15,1.54-0.16c5.98-0.01,11.95-0.08,17.93,0.03
		c2.58,0.05,5.16,0.37,7.72,0.75c5.97,0.89,9.57,4.51,11.29,10.15c1.13,3.71,1.48,7.55,1.43,11.41c-0.04,2.78-0.24,5.56-0.58,8.32
		c-0.22,1.78-0.93,3.46-2.39,4.68c-0.68,0.57-1.4,0.92-2.34,0.91c-11.22-0.02-22.45-0.02-33.67-0.02
		C187,111.09,186.75,111.02,186.33,110.96z M202.94,98.32c0,2.99-0.02,5.97,0.01,8.96c0.01,1.59,0.25,1.8,1.87,1.84
		c0.73,0.02,1.47,0.03,2.19-0.05c1.87-0.2,3.24-1.41,3.52-3.25c0.66-4.28,0.68-8.61,0.24-12.9c-0.4-3.86-2.14-5.15-6-5.04
		c-1.58,0.05-1.81,0.26-1.82,1.89C202.93,92.61,202.95,95.46,202.94,98.32z"/>
	<path class="st1" d="M549.41,158c-5.2,0-10.15,0-15.33,0c0-0.8,0-1.51,0-2.22c0-8.03-0.06-16.06,0.03-24.1
		c0.04-3.02-0.29-5.94-1.06-8.85c-0.34-1.28-0.6-2.57-0.93-4.01c6.46,0,12.8,0,19.32,0c-0.52,2.15-1.08,4.25-1.51,6.37
		c-0.27,1.35-0.49,2.75-0.5,4.12c-0.04,8.76-0.02,17.52-0.02,26.29C549.41,156.33,549.41,157.05,549.41,158z"/>
	<path class="st1" d="M253.05,118.84c0,13.1,0,26.07,0,39.14c-5.51,0-10.92,0-16.44,0c0-13.05,0-26.02,0-39.14
		C242.02,118.84,247.43,118.84,253.05,118.84z"/>
	<path class="st1" d="M236.63,74.96c5.48,0,10.89,0,16.41,0c0,12.02,0,23.94,0,36c-5.45,0-10.86,0-16.41,0
		C236.63,99.01,236.63,87.04,236.63,74.96z"/>
	<path class="st0" d="M202.95,98.32c0-2.85-0.02-5.71,0.01-8.56c0.01-1.63,0.24-1.84,1.82-1.89c3.85-0.12,5.6,1.17,6,5.04
		c0.44,4.29,0.42,8.61-0.24,12.9c-0.28,1.84-1.65,3.05-3.52,3.25c-0.72,0.08-1.46,0.07-2.19,0.05c-1.62-0.04-1.86-0.25-1.87-1.84
		C202.93,104.29,202.94,101.3,202.95,98.32z M205.05,106.99c2.75-0.06,3.36-0.49,3.55-2.98c0.22-2.97,0.28-5.95,0.3-8.93
		c0.01-0.98-0.21-1.98-0.48-2.93c-0.53-1.85-1.27-2.25-3.37-2.01C205.05,95.76,205.05,101.38,205.05,106.99z"/>
	<g>
		<path class="st0" d="M184.75,195.05c0-0.16-0.04-0.26-0.13-0.3c-0.09-0.04-0.18-0.07-0.28-0.09v-0.26h6.03
			c0.94,0,1.69,0.25,2.24,0.75c0.56,0.5,0.83,1.25,0.83,2.25c0,0.78-0.2,1.39-0.59,1.85c-0.39,0.45-0.89,0.81-1.49,1.07l1.67,2.89
			c0.06,0.12,0.15,0.22,0.27,0.3c0.12,0.09,0.25,0.13,0.38,0.13v0.26h-3.79v-0.26c0.09,0,0.18-0.02,0.29-0.05
			c0.11-0.04,0.16-0.11,0.16-0.23c0-0.07-0.07-0.25-0.2-0.54s-0.28-0.6-0.45-0.93c-0.17-0.33-0.33-0.65-0.49-0.95
			c-0.16-0.3-0.25-0.5-0.29-0.58h-1.8v2.89c0,0.16,0.05,0.26,0.14,0.3c0.09,0.04,0.21,0.07,0.35,0.09v0.26h-3.23v-0.26
			c0.08-0.01,0.16-0.04,0.24-0.09c0.09-0.04,0.13-0.14,0.13-0.3V195.05z M189.78,198.55c0.4,0,0.72-0.1,0.95-0.29
			s0.35-0.49,0.35-0.87c0-0.33-0.1-0.61-0.29-0.83c-0.19-0.22-0.57-0.33-1.13-0.33h-2.53v2.33H189.78z"/>
		<path class="st0" d="M203.99,202.01c0.25,0,0.41-0.18,0.49-0.54h0.22v2.83h-0.19c-0.06-0.2-0.13-0.32-0.2-0.35
			c-0.07-0.03-0.18-0.04-0.33-0.04h-8.37v-0.26c0.14-0.01,0.26-0.04,0.37-0.09c0.11-0.04,0.16-0.14,0.16-0.3v-8.2
			c0-0.16-0.05-0.26-0.16-0.3s-0.23-0.07-0.37-0.09v-0.26h8.52c0.07,0,0.15-0.03,0.22-0.09s0.11-0.19,0.11-0.39h0.22v2.89h-0.22
			c0-0.22-0.04-0.36-0.11-0.42s-0.15-0.1-0.22-0.1h-5.48v1.75h3.53c0.08,0,0.15-0.03,0.22-0.1c0.08-0.07,0.11-0.2,0.11-0.4h0.22
			v2.81h-0.22c0-0.2-0.04-0.33-0.11-0.4s-0.15-0.1-0.22-0.1h-3.53v2.14H203.99z"/>
		<path class="st0" d="M209.92,194.41v0.26c-0.07,0-0.17,0.01-0.29,0.02c-0.12,0.01-0.18,0.08-0.18,0.19c0,0.03,0.04,0.17,0.11,0.43
			s0.17,0.58,0.29,0.95c0.12,0.38,0.25,0.78,0.38,1.22c0.14,0.44,0.27,0.86,0.39,1.25c0.13,0.4,0.23,0.75,0.33,1.05
			c0.09,0.3,0.15,0.5,0.18,0.6h0.04c0.16-0.46,0.36-1,0.58-1.61c0.23-0.61,0.44-1.2,0.64-1.76s0.37-1.05,0.52-1.46
			s0.22-0.64,0.22-0.68c0-0.12-0.06-0.18-0.17-0.19s-0.2-0.02-0.26-0.02v-0.26h3.13v0.26c-0.1,0.01-0.18,0.04-0.25,0.08
			c-0.07,0.04-0.12,0.11-0.14,0.23c-0.04,0.16-0.13,0.47-0.29,0.93c-0.16,0.46-0.34,0.99-0.56,1.6c-0.22,0.6-0.45,1.24-0.69,1.91
			c-0.24,0.67-0.46,1.29-0.67,1.86c-0.21,0.57-0.38,1.04-0.51,1.42c-0.13,0.38-0.2,0.59-0.2,0.62c0,0.12,0.04,0.21,0.13,0.27
			c0.09,0.07,0.17,0.09,0.26,0.08v0.26h-3.96v-0.26c0.09,0.01,0.17-0.01,0.26-0.08c0.09-0.06,0.13-0.15,0.13-0.27
			c0-0.01-0.06-0.23-0.18-0.65c-0.12-0.42-0.27-0.94-0.45-1.55c-0.18-0.62-0.38-1.29-0.6-2.02s-0.43-1.4-0.63-2.03
			s-0.37-1.15-0.52-1.59c-0.14-0.43-0.24-0.66-0.29-0.69c-0.08-0.06-0.13-0.09-0.18-0.1c-0.04-0.01-0.09-0.01-0.14-0.01v-0.26
			H209.92z"/>
		<path class="st0" d="M222.11,194.28c0.59,0,1.18,0.09,1.77,0.28c0.59,0.19,1.13,0.48,1.61,0.88c0.48,0.4,0.87,0.9,1.17,1.52
			c0.3,0.62,0.45,1.35,0.45,2.2c0,0.86-0.15,1.6-0.45,2.21c-0.3,0.61-0.69,1.11-1.17,1.5c-0.48,0.39-1.02,0.67-1.61,0.84
			c-0.59,0.17-1.19,0.26-1.77,0.26c-0.59,0-1.18-0.09-1.77-0.26s-1.13-0.45-1.61-0.84s-0.87-0.89-1.17-1.5
			c-0.3-0.61-0.45-1.35-0.45-2.21c0-0.85,0.15-1.58,0.45-2.2c0.3-0.62,0.69-1.13,1.17-1.52c0.48-0.4,1.02-0.69,1.61-0.88
			C220.93,194.37,221.52,194.28,222.11,194.28z M222.11,196.57c-0.35,0-0.68,0.06-0.99,0.18c-0.31,0.12-0.59,0.3-0.83,0.52
			c-0.24,0.22-0.42,0.5-0.55,0.81c-0.13,0.32-0.2,0.68-0.2,1.08c0,0.41,0.07,0.77,0.2,1.08c0.13,0.32,0.32,0.59,0.55,0.81
			c0.24,0.22,0.51,0.4,0.83,0.52c0.31,0.12,0.64,0.18,0.99,0.18c0.36,0,0.7-0.06,1-0.18c0.31-0.12,0.58-0.3,0.82-0.52
			c0.24-0.22,0.42-0.49,0.55-0.81c0.13-0.32,0.2-0.68,0.2-1.08c0-0.4-0.07-0.77-0.2-1.08c-0.13-0.32-0.32-0.59-0.55-0.81
			c-0.24-0.22-0.51-0.4-0.82-0.52C222.8,196.63,222.47,196.57,222.11,196.57z"/>
		<path class="st0" d="M229.46,195.05c0-0.16-0.05-0.26-0.15-0.3c-0.1-0.04-0.22-0.07-0.36-0.09v-0.26h3.51v0.26
			c-0.14,0.01-0.25,0.04-0.35,0.09s-0.14,0.14-0.14,0.3v6.65h5.14c0.08,0,0.15-0.03,0.23-0.1c0.08-0.06,0.11-0.21,0.11-0.44h0.23
			v3.22h-0.23c0-0.23-0.04-0.37-0.11-0.41c-0.08-0.04-0.15-0.06-0.23-0.06h-8.16v-0.26c0.14-0.01,0.26-0.04,0.36-0.09
			c0.1-0.04,0.15-0.14,0.15-0.3V195.05z"/>
		<path class="st0" d="M240.14,195.05c0-0.16-0.05-0.26-0.16-0.3c-0.11-0.04-0.24-0.07-0.38-0.09v-0.26h3.38v0.26
			c-0.06,0.01-0.13,0.04-0.21,0.09c-0.08,0.04-0.11,0.14-0.11,0.3v5.25c0,0.55,0.17,0.94,0.52,1.18c0.34,0.24,0.8,0.36,1.36,0.36
			c0.56,0,1.02-0.12,1.36-0.36c0.34-0.24,0.52-0.63,0.52-1.18v-5.25c0-0.16-0.04-0.26-0.11-0.3s-0.14-0.07-0.21-0.09v-0.26h3.38
			v0.26c-0.15,0.01-0.28,0.04-0.38,0.09s-0.16,0.14-0.16,0.3v4.75c0,0.58-0.08,1.12-0.23,1.63c-0.15,0.51-0.39,0.96-0.73,1.34
			c-0.34,0.38-0.79,0.68-1.35,0.88s-1.26,0.31-2.08,0.31c-0.83,0-1.52-0.1-2.08-0.31c-0.56-0.21-1.01-0.5-1.35-0.88
			c-0.34-0.38-0.58-0.83-0.73-1.34c-0.15-0.51-0.23-1.05-0.23-1.63V195.05z"/>
		<path class="st0" d="M259.96,194.41c0.08,0,0.15-0.03,0.23-0.09s0.11-0.19,0.11-0.39h0.23v3.15h-0.23c0-0.2-0.04-0.33-0.11-0.39
			s-0.15-0.09-0.23-0.09h-2.68v6.65c0,0.16,0.05,0.26,0.14,0.3c0.09,0.04,0.19,0.07,0.29,0.09v0.26h-3.38v-0.26
			c0.1-0.01,0.2-0.04,0.29-0.09c0.09-0.04,0.14-0.14,0.14-0.3v-6.65h-2.68c-0.08,0-0.15,0.03-0.23,0.09s-0.11,0.19-0.11,0.39h-0.23
			v-3.15h0.23c0,0.2,0.04,0.33,0.11,0.39s0.15,0.09,0.23,0.09H259.96z"/>
		<path class="st0" d="M266.23,194.67c-0.19,0.01-0.33,0.04-0.44,0.09s-0.16,0.14-0.16,0.3v8.2c0,0.16,0.05,0.26,0.16,0.3
			c0.11,0.04,0.25,0.07,0.44,0.09v0.26h-3.72v-0.26c0.19-0.01,0.33-0.04,0.44-0.09c0.11-0.04,0.16-0.14,0.16-0.3v-8.2
			c0-0.16-0.05-0.26-0.16-0.3s-0.25-0.07-0.44-0.09v-0.26h3.72V194.67z"/>
		<path class="st0" d="M273.22,194.28c0.59,0,1.18,0.09,1.77,0.28c0.59,0.19,1.13,0.48,1.61,0.88c0.48,0.4,0.87,0.9,1.17,1.52
			c0.3,0.62,0.45,1.35,0.45,2.2c0,0.86-0.15,1.6-0.45,2.21c-0.3,0.61-0.69,1.11-1.17,1.5c-0.48,0.39-1.02,0.67-1.61,0.84
			c-0.59,0.17-1.19,0.26-1.77,0.26c-0.59,0-1.18-0.09-1.77-0.26s-1.13-0.45-1.61-0.84s-0.87-0.89-1.17-1.5
			c-0.3-0.61-0.45-1.35-0.45-2.21c0-0.85,0.15-1.58,0.45-2.2c0.3-0.62,0.69-1.13,1.17-1.52c0.48-0.4,1.02-0.69,1.61-0.88
			C272.04,194.37,272.63,194.28,273.22,194.28z M273.22,196.57c-0.35,0-0.68,0.06-0.99,0.18c-0.31,0.12-0.59,0.3-0.83,0.52
			c-0.24,0.22-0.42,0.5-0.55,0.81c-0.13,0.32-0.2,0.68-0.2,1.08c0,0.41,0.07,0.77,0.2,1.08c0.13,0.32,0.32,0.59,0.55,0.81
			c0.24,0.22,0.51,0.4,0.83,0.52c0.31,0.12,0.64,0.18,0.99,0.18c0.36,0,0.7-0.06,1-0.18c0.31-0.12,0.58-0.3,0.82-0.52
			c0.24-0.22,0.42-0.49,0.55-0.81c0.13-0.32,0.2-0.68,0.2-1.08c0-0.4-0.07-0.77-0.2-1.08c-0.13-0.32-0.32-0.59-0.55-0.81
			c-0.24-0.22-0.51-0.4-0.82-0.52C273.91,196.63,273.58,196.57,273.22,196.57z"/>
		<path class="st0" d="M289.83,203.26c0,0.16,0.05,0.26,0.15,0.3c0.1,0.04,0.23,0.07,0.38,0.09v0.26h-3.47v-0.26
			c0.1,0,0.22-0.01,0.35-0.04c0.13-0.03,0.2-0.11,0.2-0.24c0-0.13-0.14-0.37-0.41-0.72s-0.63-0.79-1.06-1.31
			c-0.43-0.52-0.92-1.1-1.45-1.74c-0.54-0.64-1.07-1.32-1.6-2.04l-0.04,0.04v5.66c0,0.16,0.05,0.26,0.14,0.3
			c0.09,0.04,0.21,0.07,0.35,0.09v0.26h-3.21v-0.26c0.13-0.01,0.23-0.04,0.33-0.09c0.09-0.04,0.14-0.14,0.14-0.3v-8.2
			c0-0.16-0.05-0.26-0.15-0.3c-0.1-0.04-0.22-0.07-0.36-0.09v-0.26h4.47v0.26c-0.09,0.01-0.18,0.04-0.26,0.09
			c-0.09,0.04-0.13,0.14-0.13,0.3c0,0.03,0.1,0.18,0.31,0.44c0.21,0.27,0.47,0.6,0.8,1c0.33,0.4,0.69,0.85,1.09,1.34
			s0.8,0.98,1.2,1.47v-4.25c0-0.16-0.05-0.26-0.15-0.3c-0.1-0.04-0.22-0.07-0.38-0.09v-0.26h3.3v0.26
			c-0.15,0.01-0.28,0.04-0.38,0.09c-0.1,0.04-0.15,0.14-0.15,0.3V203.26z"/>
		<path class="st0" d="M296.47,194.67c-0.19,0.01-0.33,0.04-0.44,0.09s-0.16,0.14-0.16,0.3v8.2c0,0.16,0.05,0.26,0.16,0.3
			c0.11,0.04,0.25,0.07,0.44,0.09v0.26h-3.72v-0.26c0.19-0.01,0.33-0.04,0.44-0.09c0.11-0.04,0.16-0.14,0.16-0.3v-8.2
			c0-0.16-0.05-0.26-0.16-0.3c-0.11-0.04-0.25-0.07-0.44-0.09v-0.26h3.72V194.67z"/>
		<path class="st0" d="M299.42,196.61c-0.11,0-0.2,0.03-0.25,0.08c-0.06,0.05-0.08,0.19-0.08,0.42h-0.23v-3.2h0.23
			c0,0.23,0.03,0.37,0.08,0.42c0.06,0.05,0.14,0.08,0.25,0.08h7.54v0.26l-4.34,7.04h4.04c0.11,0,0.2-0.03,0.25-0.09
			c0.06-0.06,0.08-0.22,0.08-0.47h0.22v3.19H307c0-0.23-0.03-0.36-0.08-0.39c-0.06-0.03-0.14-0.04-0.25-0.04h-8v-0.26l4.37-7.04
			H299.42z"/>
		<path class="st0" d="M313.16,194.67c-0.19,0.01-0.33,0.04-0.44,0.09s-0.16,0.14-0.16,0.3v8.2c0,0.16,0.05,0.26,0.16,0.3
			c0.11,0.04,0.25,0.07,0.44,0.09v0.26h-3.72v-0.26c0.19-0.01,0.33-0.04,0.44-0.09c0.11-0.04,0.16-0.14,0.16-0.3v-8.2
			c0-0.16-0.05-0.26-0.16-0.3c-0.11-0.04-0.25-0.07-0.44-0.09v-0.26h3.72V194.67z"/>
		<path class="st0" d="M325.28,203.26c0,0.16,0.05,0.26,0.15,0.3c0.1,0.04,0.23,0.07,0.38,0.09v0.26h-3.47v-0.26
			c0.1,0,0.22-0.01,0.35-0.04c0.13-0.03,0.2-0.11,0.2-0.24c0-0.13-0.14-0.37-0.41-0.72s-0.63-0.79-1.06-1.31
			c-0.43-0.52-0.92-1.1-1.45-1.74c-0.54-0.64-1.07-1.32-1.6-2.04l-0.04,0.04v5.66c0,0.16,0.05,0.26,0.14,0.3
			c0.09,0.04,0.21,0.07,0.35,0.09v0.26h-3.21v-0.26c0.13-0.01,0.23-0.04,0.33-0.09c0.09-0.04,0.14-0.14,0.14-0.3v-8.2
			c0-0.16-0.05-0.26-0.15-0.3c-0.1-0.04-0.22-0.07-0.36-0.09v-0.26h4.47v0.26c-0.09,0.01-0.18,0.04-0.26,0.09
			c-0.09,0.04-0.13,0.14-0.13,0.3c0,0.03,0.1,0.18,0.31,0.44c0.21,0.27,0.47,0.6,0.8,1c0.33,0.4,0.69,0.85,1.09,1.34
			s0.8,0.98,1.2,1.47v-4.25c0-0.16-0.05-0.26-0.15-0.3c-0.1-0.04-0.22-0.07-0.38-0.09v-0.26h3.3v0.26
			c-0.15,0.01-0.28,0.04-0.38,0.09c-0.1,0.04-0.15,0.14-0.15,0.3V203.26z"/>
		<path class="st0" d="M337.18,201.68c0,0.14,0.03,0.27,0.09,0.39s0.15,0.17,0.26,0.17h0.17v0.26c-0.3,0.17-0.64,0.35-1.03,0.53
			s-0.81,0.34-1.26,0.49c-0.45,0.14-0.91,0.26-1.39,0.33s-0.95,0.12-1.43,0.12c-0.73,0-1.39-0.09-2.01-0.26s-1.14-0.46-1.57-0.85
			s-0.77-0.9-1.01-1.51s-0.37-1.34-0.37-2.19c0-0.85,0.14-1.58,0.41-2.19s0.64-1.12,1.11-1.51s0.99-0.69,1.59-0.89
			c0.59-0.19,1.21-0.29,1.85-0.29c0.48,0,0.91,0.03,1.3,0.1c0.39,0.07,0.74,0.14,1.04,0.23c0.3,0.09,0.55,0.16,0.74,0.23
			c0.19,0.06,0.32,0.1,0.38,0.1c0.1,0,0.17-0.02,0.2-0.06c0.03-0.04,0.07-0.09,0.12-0.15l0.23,0.04l-0.98,2.85l-0.23-0.13v-0.15
			c0-0.13-0.08-0.25-0.25-0.37s-0.38-0.22-0.63-0.31c-0.25-0.09-0.52-0.17-0.8-0.22c-0.28-0.05-0.53-0.08-0.76-0.08
			c-0.39,0-0.76,0.05-1.11,0.15c-0.35,0.1-0.65,0.27-0.91,0.5c-0.26,0.23-0.46,0.52-0.61,0.87s-0.23,0.78-0.23,1.28
			c0,0.52,0.08,0.96,0.23,1.33c0.15,0.37,0.36,0.67,0.62,0.91s0.57,0.41,0.92,0.53s0.73,0.17,1.15,0.17c0.31,0,0.62-0.02,0.92-0.08
			c0.3-0.05,0.6-0.13,0.9-0.25v-1.4h-1.58c-0.15,0-0.24,0.06-0.28,0.19c-0.04,0.13-0.06,0.24-0.06,0.32h-0.22v-2.68h0.22
			c0,0.09,0.02,0.19,0.06,0.32c0.04,0.13,0.13,0.19,0.28,0.19h3.9V201.68z"/>
		<path class="st0" d="M353.29,194.41c0.08,0,0.15-0.03,0.23-0.09s0.11-0.19,0.11-0.39h0.23v3.15h-0.23c0-0.2-0.04-0.33-0.11-0.39
			s-0.15-0.09-0.23-0.09h-2.68v6.65c0,0.16,0.05,0.26,0.14,0.3c0.09,0.04,0.19,0.07,0.29,0.09v0.26h-3.38v-0.26
			c0.1-0.01,0.2-0.04,0.29-0.09c0.09-0.04,0.14-0.14,0.14-0.3v-6.65h-2.68c-0.08,0-0.15,0.03-0.23,0.09s-0.11,0.19-0.11,0.39h-0.23
			v-3.15h0.23c0,0.2,0.04,0.33,0.11,0.39s0.15,0.09,0.23,0.09H353.29z"/>
		<path class="st0" d="M358.75,203.26c0,0.16,0.05,0.26,0.15,0.3c0.1,0.04,0.22,0.07,0.38,0.09v0.26h-3.57v-0.26
			c0.15-0.01,0.28-0.04,0.38-0.09c0.1-0.04,0.15-0.14,0.15-0.3v-8.2c0-0.16-0.05-0.26-0.15-0.3c-0.1-0.04-0.23-0.07-0.38-0.09v-0.26
			h3.57v0.26c-0.15,0.01-0.28,0.04-0.38,0.09c-0.1,0.04-0.15,0.14-0.15,0.3v2.72h4.15v-2.72c0-0.16-0.05-0.26-0.15-0.3
			c-0.1-0.04-0.23-0.07-0.38-0.09v-0.26h3.57v0.26c-0.15,0.01-0.28,0.04-0.38,0.09c-0.1,0.04-0.15,0.14-0.15,0.3v8.2
			c0,0.16,0.05,0.26,0.15,0.3c0.1,0.04,0.23,0.07,0.38,0.09v0.26h-3.57v-0.26c0.15-0.01,0.27-0.04,0.38-0.09
			c0.1-0.04,0.15-0.14,0.15-0.3v-3.28h-4.15V203.26z"/>
		<path class="st0" d="M376.6,202.01c0.25,0,0.41-0.18,0.49-0.54h0.23v2.83h-0.19c-0.06-0.2-0.13-0.32-0.2-0.35
			c-0.07-0.03-0.18-0.04-0.33-0.04h-8.37v-0.26c0.14-0.01,0.26-0.04,0.37-0.09c0.11-0.04,0.16-0.14,0.16-0.3v-8.2
			c0-0.16-0.05-0.26-0.16-0.3s-0.23-0.07-0.37-0.09v-0.26h8.52c0.08,0,0.15-0.03,0.23-0.09s0.11-0.19,0.11-0.39h0.23v2.89h-0.23
			c0-0.22-0.04-0.36-0.11-0.42s-0.15-0.1-0.23-0.1h-5.48v1.75h3.53c0.08,0,0.15-0.03,0.23-0.1c0.08-0.07,0.11-0.2,0.11-0.4h0.23
			v2.81h-0.23c0-0.2-0.04-0.33-0.11-0.4s-0.15-0.1-0.23-0.1h-3.53v2.14H376.6z"/>
		<path class="st0" d="M390,194.28c0.59,0,1.18,0.09,1.77,0.28c0.59,0.19,1.13,0.48,1.61,0.88c0.48,0.4,0.87,0.9,1.17,1.52
			c0.3,0.62,0.45,1.35,0.45,2.2c0,0.86-0.15,1.6-0.45,2.21c-0.3,0.61-0.69,1.11-1.17,1.5s-1.02,0.67-1.61,0.84
			c-0.59,0.17-1.19,0.26-1.77,0.26s-1.18-0.09-1.77-0.26c-0.59-0.17-1.13-0.45-1.61-0.84c-0.48-0.39-0.87-0.89-1.17-1.5
			c-0.3-0.61-0.45-1.35-0.45-2.21c0-0.85,0.15-1.58,0.45-2.2c0.3-0.62,0.69-1.13,1.17-1.52c0.48-0.4,1.02-0.69,1.61-0.88
			C388.82,194.37,389.41,194.28,390,194.28z M390,196.57c-0.35,0-0.68,0.06-1,0.18c-0.31,0.12-0.59,0.3-0.83,0.52
			c-0.24,0.22-0.42,0.5-0.55,0.81c-0.13,0.32-0.2,0.68-0.2,1.08c0,0.41,0.07,0.77,0.2,1.08c0.13,0.32,0.32,0.59,0.55,0.81
			c0.24,0.22,0.51,0.4,0.83,0.52c0.31,0.12,0.64,0.18,1,0.18c0.36,0,0.7-0.06,1-0.18c0.31-0.12,0.58-0.3,0.82-0.52
			c0.24-0.22,0.42-0.49,0.55-0.81c0.13-0.32,0.2-0.68,0.2-1.08c0-0.4-0.07-0.77-0.2-1.08c-0.13-0.32-0.32-0.59-0.55-0.81
			c-0.24-0.22-0.51-0.4-0.82-0.52S390.36,196.57,390,196.57z"/>
		<path class="st0" d="M406.61,203.26c0,0.16,0.05,0.26,0.15,0.3c0.1,0.04,0.23,0.07,0.38,0.09v0.26h-3.47v-0.26
			c0.1,0,0.22-0.01,0.35-0.04c0.13-0.03,0.2-0.11,0.2-0.24c0-0.13-0.14-0.37-0.41-0.72s-0.63-0.79-1.06-1.31
			c-0.43-0.52-0.92-1.1-1.45-1.74c-0.54-0.64-1.07-1.32-1.6-2.04l-0.04,0.04v5.66c0,0.16,0.05,0.26,0.14,0.3
			c0.09,0.04,0.21,0.07,0.35,0.09v0.26h-3.21v-0.26c0.13-0.01,0.23-0.04,0.33-0.09c0.09-0.04,0.14-0.14,0.14-0.3v-8.2
			c0-0.16-0.05-0.26-0.15-0.3c-0.1-0.04-0.22-0.07-0.36-0.09v-0.26h4.47v0.26c-0.09,0.01-0.18,0.04-0.26,0.09
			c-0.09,0.04-0.13,0.14-0.13,0.3c0,0.03,0.1,0.18,0.31,0.44c0.21,0.27,0.47,0.6,0.8,1c0.33,0.4,0.69,0.85,1.09,1.34
			s0.8,0.98,1.2,1.47v-4.25c0-0.16-0.05-0.26-0.15-0.3c-0.1-0.04-0.22-0.07-0.38-0.09v-0.26h3.3v0.26
			c-0.15,0.01-0.28,0.04-0.38,0.09c-0.1,0.04-0.15,0.14-0.15,0.3V203.26z"/>
		<path class="st0" d="M409.88,195.05c0-0.16-0.05-0.26-0.15-0.3s-0.22-0.07-0.36-0.09v-0.26h3.51v0.26
			c-0.14,0.01-0.25,0.04-0.35,0.09c-0.09,0.04-0.14,0.14-0.14,0.3v6.65h5.14c0.08,0,0.15-0.03,0.22-0.1
			c0.08-0.06,0.11-0.21,0.11-0.44h0.22v3.22h-0.22c0-0.23-0.04-0.37-0.11-0.41c-0.07-0.04-0.15-0.06-0.22-0.06h-8.17v-0.26
			c0.14-0.01,0.26-0.04,0.36-0.09c0.1-0.04,0.15-0.14,0.15-0.3V195.05z"/>
		<path class="st0" d="M423.69,194.67c-0.19,0.01-0.33,0.04-0.44,0.09s-0.16,0.14-0.16,0.3v8.2c0,0.16,0.05,0.26,0.16,0.3
			c0.11,0.04,0.25,0.07,0.44,0.09v0.26h-3.72v-0.26c0.19-0.01,0.33-0.04,0.44-0.09c0.11-0.04,0.16-0.14,0.16-0.3v-8.2
			c0-0.16-0.05-0.26-0.16-0.3c-0.11-0.04-0.25-0.07-0.44-0.09v-0.26h3.72V194.67z"/>
		<path class="st0" d="M435.81,203.26c0,0.16,0.05,0.26,0.15,0.3c0.1,0.04,0.23,0.07,0.38,0.09v0.26h-3.47v-0.26
			c0.1,0,0.22-0.01,0.35-0.04c0.13-0.03,0.2-0.11,0.2-0.24c0-0.13-0.14-0.37-0.41-0.72s-0.63-0.79-1.06-1.31
			c-0.43-0.52-0.92-1.1-1.45-1.74c-0.54-0.64-1.07-1.32-1.6-2.04l-0.04,0.04v5.66c0,0.16,0.05,0.26,0.14,0.3
			c0.09,0.04,0.21,0.07,0.35,0.09v0.26h-3.21v-0.26c0.13-0.01,0.23-0.04,0.33-0.09c0.09-0.04,0.14-0.14,0.14-0.3v-8.2
			c0-0.16-0.05-0.26-0.15-0.3c-0.1-0.04-0.22-0.07-0.36-0.09v-0.26h4.47v0.26c-0.09,0.01-0.18,0.04-0.26,0.09
			c-0.09,0.04-0.13,0.14-0.13,0.3c0,0.03,0.1,0.18,0.31,0.44c0.21,0.27,0.47,0.6,0.8,1c0.33,0.4,0.69,0.85,1.09,1.34
			s0.8,0.98,1.2,1.47v-4.25c0-0.16-0.05-0.26-0.15-0.3c-0.1-0.04-0.22-0.07-0.38-0.09v-0.26h3.3v0.26
			c-0.15,0.01-0.28,0.04-0.38,0.09c-0.1,0.04-0.15,0.14-0.15,0.3V203.26z"/>
		<path class="st0" d="M446.98,202.01c0.25,0,0.41-0.18,0.49-0.54h0.23v2.83h-0.19c-0.06-0.2-0.13-0.32-0.2-0.35
			c-0.07-0.03-0.18-0.04-0.33-0.04h-8.37v-0.26c0.14-0.01,0.26-0.04,0.37-0.09c0.11-0.04,0.16-0.14,0.16-0.3v-8.2
			c0-0.16-0.05-0.26-0.16-0.3s-0.23-0.07-0.37-0.09v-0.26h8.52c0.08,0,0.15-0.03,0.23-0.09s0.11-0.19,0.11-0.39h0.23v2.89h-0.23
			c0-0.22-0.04-0.36-0.11-0.42s-0.15-0.1-0.23-0.1h-5.48v1.75h3.53c0.08,0,0.15-0.03,0.23-0.1c0.08-0.07,0.11-0.2,0.11-0.4h0.23
			v2.81h-0.23c0-0.2-0.04-0.33-0.11-0.4s-0.15-0.1-0.23-0.1h-3.53v2.14H446.98z"/>
		<path class="st0" d="M464.91,201.68c0,0.14,0.03,0.27,0.09,0.39s0.15,0.17,0.26,0.17h0.17v0.26c-0.3,0.17-0.64,0.35-1.03,0.53
			s-0.81,0.34-1.26,0.49c-0.45,0.14-0.91,0.26-1.39,0.33s-0.95,0.12-1.43,0.12c-0.73,0-1.39-0.09-2.01-0.26s-1.14-0.46-1.57-0.85
			s-0.77-0.9-1.01-1.51s-0.37-1.34-0.37-2.19c0-0.85,0.14-1.58,0.41-2.19s0.64-1.12,1.11-1.51s0.99-0.69,1.59-0.89
			c0.59-0.19,1.21-0.29,1.85-0.29c0.48,0,0.91,0.03,1.3,0.1c0.39,0.07,0.74,0.14,1.04,0.23c0.3,0.09,0.55,0.16,0.74,0.23
			c0.19,0.06,0.32,0.1,0.38,0.1c0.1,0,0.17-0.02,0.2-0.06s0.07-0.09,0.12-0.15l0.23,0.04l-0.98,2.85l-0.23-0.13v-0.15
			c0-0.13-0.08-0.25-0.25-0.37s-0.38-0.22-0.63-0.31c-0.25-0.09-0.52-0.17-0.8-0.22c-0.28-0.05-0.53-0.08-0.76-0.08
			c-0.39,0-0.76,0.05-1.11,0.15c-0.35,0.1-0.65,0.27-0.91,0.5c-0.26,0.23-0.46,0.52-0.61,0.87s-0.23,0.78-0.23,1.28
			c0,0.52,0.08,0.96,0.23,1.33c0.15,0.37,0.36,0.67,0.62,0.91s0.57,0.41,0.92,0.53s0.73,0.17,1.15,0.17c0.31,0,0.62-0.02,0.92-0.08
			c0.3-0.05,0.6-0.13,0.9-0.25v-1.4H461c-0.15,0-0.24,0.06-0.28,0.19c-0.04,0.13-0.06,0.24-0.06,0.32h-0.22v-2.68h0.22
			c0,0.09,0.02,0.19,0.06,0.32c0.04,0.13,0.13,0.19,0.28,0.19h3.9V201.68z"/>
		<path class="st0" d="M467.98,195.05c0-0.16-0.05-0.26-0.16-0.3s-0.23-0.07-0.38-0.09v-0.26h3.38v0.26
			c-0.06,0.01-0.13,0.04-0.21,0.09c-0.08,0.04-0.11,0.14-0.11,0.3v5.25c0,0.55,0.17,0.94,0.52,1.18c0.34,0.24,0.8,0.36,1.36,0.36
			c0.56,0,1.02-0.12,1.36-0.36c0.34-0.24,0.52-0.63,0.52-1.18v-5.25c0-0.16-0.04-0.26-0.11-0.3s-0.14-0.07-0.21-0.09v-0.26h3.38
			v0.26c-0.15,0.01-0.28,0.04-0.38,0.09s-0.16,0.14-0.16,0.3v4.75c0,0.58-0.08,1.12-0.23,1.63s-0.39,0.96-0.73,1.34
			c-0.34,0.38-0.79,0.68-1.35,0.88c-0.56,0.21-1.26,0.31-2.08,0.31c-0.83,0-1.52-0.1-2.08-0.31c-0.56-0.21-1.01-0.5-1.35-0.88
			c-0.34-0.38-0.58-0.83-0.73-1.34c-0.15-0.51-0.22-1.05-0.22-1.63V195.05z"/>
		<path class="st0" d="M489.51,203.26c0,0.16,0.05,0.26,0.15,0.3c0.1,0.04,0.23,0.07,0.38,0.09v0.26h-3.47v-0.26
			c0.1,0,0.22-0.01,0.35-0.04c0.13-0.03,0.2-0.11,0.2-0.24c0-0.13-0.14-0.37-0.41-0.72s-0.63-0.79-1.06-1.31
			c-0.43-0.52-0.92-1.1-1.45-1.74c-0.54-0.64-1.07-1.32-1.6-2.04l-0.04,0.04v5.66c0,0.16,0.05,0.26,0.14,0.3
			c0.09,0.04,0.21,0.07,0.35,0.09v0.26h-3.21v-0.26c0.13-0.01,0.23-0.04,0.33-0.09c0.09-0.04,0.14-0.14,0.14-0.3v-8.2
			c0-0.16-0.05-0.26-0.15-0.3c-0.1-0.04-0.22-0.07-0.36-0.09v-0.26h4.47v0.26c-0.09,0.01-0.18,0.04-0.26,0.09
			c-0.09,0.04-0.13,0.14-0.13,0.3c0,0.03,0.1,0.18,0.31,0.44c0.21,0.27,0.47,0.6,0.8,1c0.33,0.4,0.69,0.85,1.09,1.34
			s0.8,0.98,1.2,1.47v-4.25c0-0.16-0.05-0.26-0.15-0.3c-0.1-0.04-0.22-0.07-0.38-0.09v-0.26h3.3v0.26
			c-0.15,0.01-0.28,0.04-0.38,0.09c-0.1,0.04-0.15,0.14-0.15,0.3V203.26z"/>
		<path class="st0" d="M498.62,200.73c0,0.03,0,0.06-0.01,0.1c-0.01,0.04-0.01,0.08-0.01,0.14c0,0.14,0.12,0.28,0.36,0.41
			s0.54,0.25,0.91,0.36c0.37,0.11,0.77,0.19,1.2,0.26c0.43,0.06,0.84,0.1,1.21,0.1c0.11,0,0.27-0.01,0.46-0.02
			c0.19-0.01,0.38-0.05,0.57-0.12c0.19-0.07,0.35-0.16,0.48-0.28c0.13-0.12,0.2-0.29,0.2-0.51c0-0.29-0.15-0.49-0.45-0.62
			c-0.3-0.12-0.68-0.22-1.14-0.28c-0.46-0.07-0.95-0.13-1.48-0.21c-0.53-0.07-1.03-0.2-1.48-0.38s-0.83-0.44-1.13-0.78
			c-0.3-0.34-0.45-0.81-0.45-1.41c0-0.33,0.08-0.69,0.23-1.07c0.15-0.38,0.39-0.73,0.71-1.05c0.33-0.32,0.75-0.58,1.29-0.79
			c0.53-0.21,1.18-0.31,1.94-0.31c0.45,0,0.88,0.03,1.29,0.09c0.41,0.06,0.78,0.12,1.11,0.19c0.33,0.07,0.61,0.14,0.84,0.19
			c0.23,0.06,0.4,0.09,0.5,0.09c0.1,0,0.18-0.03,0.24-0.1c0.06-0.06,0.12-0.12,0.17-0.16l0.21,0.09l-1.13,2.72l-0.24-0.13
			c0-0.03,0-0.06,0.01-0.11c0.01-0.04,0.01-0.09,0.01-0.13c0-0.06-0.08-0.13-0.22-0.22c-0.15-0.09-0.35-0.17-0.59-0.26
			c-0.24-0.09-0.52-0.16-0.83-0.23c-0.31-0.07-0.62-0.1-0.95-0.1c-0.11,0-0.29,0-0.53,0.01c-0.24,0.01-0.48,0.04-0.71,0.11
			c-0.24,0.06-0.45,0.16-0.63,0.28c-0.18,0.12-0.27,0.31-0.27,0.55c0,0.26,0.15,0.44,0.45,0.55c0.3,0.11,0.68,0.19,1.14,0.26
			c0.46,0.06,0.95,0.14,1.48,0.22c0.53,0.08,1.03,0.21,1.48,0.4c0.46,0.19,0.83,0.46,1.14,0.81c0.3,0.35,0.45,0.85,0.45,1.48
			c0,0.42-0.08,0.82-0.24,1.2c-0.16,0.38-0.41,0.72-0.75,1s-0.77,0.51-1.29,0.66c-0.52,0.15-1.14,0.23-1.85,0.23
			c-0.45,0-0.91-0.03-1.37-0.1s-0.89-0.14-1.28-0.24s-0.71-0.18-0.97-0.26c-0.26-0.08-0.4-0.12-0.44-0.12
			c-0.09,0-0.17,0.03-0.23,0.1c-0.07,0.07-0.13,0.13-0.2,0.21l-0.21-0.06l0.77-2.89L498.62,200.73z"/>
		<path class="st0" d="M516.48,194.41c0.08,0,0.15-0.03,0.23-0.09s0.11-0.19,0.11-0.39h0.23v3.15h-0.23c0-0.2-0.04-0.33-0.11-0.39
			s-0.15-0.09-0.23-0.09h-2.68v6.65c0,0.16,0.05,0.26,0.14,0.3c0.09,0.04,0.19,0.07,0.29,0.09v0.26h-3.38v-0.26
			c0.1-0.01,0.2-0.04,0.29-0.09c0.09-0.04,0.14-0.14,0.14-0.3v-6.65h-2.68c-0.08,0-0.15,0.03-0.23,0.09s-0.11,0.19-0.11,0.39h-0.23
			v-3.15h0.23c0,0.2,0.04,0.33,0.11,0.39s0.15,0.09,0.23,0.09H516.48z"/>
		<path class="st0" d="M523.49,194.28c0.59,0,1.18,0.09,1.77,0.28c0.59,0.19,1.13,0.48,1.61,0.88c0.48,0.4,0.87,0.9,1.17,1.52
			c0.3,0.62,0.45,1.35,0.45,2.2c0,0.86-0.15,1.6-0.45,2.21c-0.3,0.61-0.69,1.11-1.17,1.5s-1.02,0.67-1.61,0.84
			c-0.59,0.17-1.19,0.26-1.77,0.26s-1.18-0.09-1.77-0.26c-0.59-0.17-1.13-0.45-1.61-0.84c-0.48-0.39-0.87-0.89-1.17-1.5
			c-0.3-0.61-0.45-1.35-0.45-2.21c0-0.85,0.15-1.58,0.45-2.2c0.3-0.62,0.69-1.13,1.17-1.52c0.48-0.4,1.02-0.69,1.61-0.88
			C522.31,194.37,522.9,194.28,523.49,194.28z M523.49,196.57c-0.35,0-0.68,0.06-1,0.18c-0.31,0.12-0.59,0.3-0.83,0.52
			c-0.24,0.22-0.42,0.5-0.55,0.81c-0.13,0.32-0.2,0.68-0.2,1.08c0,0.41,0.07,0.77,0.2,1.08c0.13,0.32,0.32,0.59,0.55,0.81
			c0.24,0.22,0.51,0.4,0.83,0.52c0.31,0.12,0.64,0.18,1,0.18c0.36,0,0.7-0.06,1-0.18c0.31-0.12,0.58-0.3,0.82-0.52
			c0.24-0.22,0.42-0.49,0.55-0.81c0.13-0.32,0.2-0.68,0.2-1.08c0-0.4-0.07-0.77-0.2-1.08c-0.13-0.32-0.32-0.59-0.55-0.81
			c-0.24-0.22-0.51-0.4-0.82-0.52S523.85,196.57,523.49,196.57z"/>
		<path class="st0" d="M530.97,195.05c0-0.16-0.04-0.26-0.13-0.3c-0.09-0.04-0.18-0.07-0.28-0.09v-0.26h6.02
			c0.94,0,1.69,0.25,2.24,0.75c0.56,0.5,0.83,1.25,0.83,2.25c0,0.78-0.2,1.39-0.59,1.85s-0.89,0.81-1.49,1.07l1.67,2.89
			c0.06,0.12,0.15,0.22,0.27,0.3c0.12,0.09,0.25,0.13,0.38,0.13v0.26h-3.79v-0.26c0.09,0,0.18-0.02,0.29-0.05
			c0.11-0.04,0.16-0.11,0.16-0.23c0-0.07-0.07-0.25-0.2-0.54c-0.13-0.29-0.28-0.6-0.45-0.93c-0.17-0.33-0.33-0.65-0.49-0.95
			c-0.16-0.3-0.25-0.5-0.29-0.58h-1.8v2.89c0,0.16,0.05,0.26,0.14,0.3c0.09,0.04,0.21,0.07,0.35,0.09v0.26h-3.23v-0.26
			c0.08-0.01,0.16-0.04,0.24-0.09c0.09-0.04,0.13-0.14,0.13-0.3V195.05z M536,198.55c0.4,0,0.72-0.1,0.95-0.29s0.35-0.49,0.35-0.87
			c0-0.33-0.1-0.61-0.29-0.83c-0.19-0.22-0.57-0.33-1.14-0.33h-2.53v2.33H536z"/>
		<path class="st0" d="M550.21,202.01c0.25,0,0.41-0.18,0.49-0.54h0.23v2.83h-0.19c-0.06-0.2-0.13-0.32-0.2-0.35
			c-0.07-0.03-0.18-0.04-0.33-0.04h-8.37v-0.26c0.14-0.01,0.26-0.04,0.37-0.09c0.11-0.04,0.16-0.14,0.16-0.3v-8.2
			c0-0.16-0.05-0.26-0.16-0.3s-0.23-0.07-0.37-0.09v-0.26h8.52c0.08,0,0.15-0.03,0.23-0.09s0.11-0.19,0.11-0.39h0.23v2.89h-0.23
			c0-0.22-0.04-0.36-0.11-0.42s-0.15-0.1-0.23-0.1h-5.48v1.75h3.53c0.08,0,0.15-0.03,0.23-0.1c0.08-0.07,0.11-0.2,0.11-0.4h0.23
			v2.81h-0.23c0-0.2-0.04-0.33-0.11-0.4s-0.15-0.1-0.23-0.1h-3.53v2.14H550.21z"/>
	</g>
</g>
</svg>
