<svg xmlns="http://www.w3.org/2000/svg" viewBox="0 0 1200.66 367.58"><defs><style>.cls-1{fill:none;}.cls-2{fill:#fcfcfc;}.cls-3{fill:#fbfbfb;}.cls-4{fill:#f9f9f9;}.cls-5{fill:#f8f8f8;}.cls-6{fill:#f5f5f5;}.cls-7{fill:#f7f7f7;}.cls-8{fill:#f4f1ee;}.cls-9{fill:#e66700;}.cls-10{fill:#eb6a00;}.cls-11{fill:#f0f0f0;}.cls-12{fill:#f3f3f3;}.cls-13{fill:#ebebeb;}.cls-14{fill:#ef6d02;}.cls-15{fill:#fff;}.cls-16{fill:#ef6c02;}.cls-17{fill:#ef6d03;}.cls-18{fill:#ef6c01;}</style></defs><g id="Layer_2" data-name="Layer 2"><g id="Layer_1-2" data-name="Layer 1"><path class="cls-1" d="M1108.37,351.34a5.59,5.59,0,0,0-.27,11.18,5.37,5.37,0,0,0,5.68-5.47C1113.84,353.64,1111.65,351.33,1108.37,351.34Z"/><path class="cls-1" d="M815.29,351.34a5.56,5.56,0,0,0-5.33,5.42,5.62,5.62,0,0,0,5.52,5.76,5.42,5.42,0,0,0,5.48-5.7A5.28,5.28,0,0,0,815.29,351.34Z"/><path class="cls-1" d="M417.45,124.05c-.76-6.51-4.1-6.53-5.72-6.53h0a10.64,10.64,0,0,0-1.34.09c-.76,7.86-.66,28.6.16,36.87l.88,0h.45c4-.11,4.51-.53,5.24-4.59A87.69,87.69,0,0,0,417.45,124.05Z"/><path class="cls-1" d="M124.73,138.85c.27,0,.54-.26,1-.49V99.76c-1.53,0-2.51,0-3.49,0-6.52.24-9.2,2.11-10,8.6a89.39,89.39,0,0,0-.4,17.84C112.75,137.78,113.12,138.58,124.73,138.85Z"/><path class="cls-1" d="M1130.3,350.69v4.42h8.13c-.17-1.72-.3-3-.45-4.42Z"/><path class="cls-1" d="M370.69,350.81c.08,1.6.16,3,.23,4.38h7.83c-.14-1.77-.23-2.95-.35-4.38Z"/><path class="cls-1" d="M411.64,188h-.3c-.39,0-.84,0-1.33.08a5,5,0,0,0-.05.63c0,13.59-.08,29.66,0,45.81a6.26,6.26,0,0,0,.1,1c5.56-.13,7.47-1.65,7.64-8.92.24-10.1.23-20.78,0-32.65C417.6,189.25,416.53,188.19,411.64,188Z"/><path class="cls-1" d="M447.45,351.36a5.37,5.37,0,0,0-5.77,5.41,5.52,5.52,0,1,0,11,.05A5.44,5.44,0,0,0,447.45,351.36Z"/><path class="cls-1" d="M560.79,351.54a5.45,5.45,0,0,0-6.52,3.09,5.64,5.64,0,0,0,2,7c2.52,1.69,5,1,8.26-2.31C564.8,354.29,563.82,352.34,560.79,351.54Z"/><path class="cls-1" d="M513.75,180.86h0Z"/><path class="cls-1" d="M480.23,266.23h0Z"/><path class="cls-1" d="M514.75,265.23h0V181.86h0Z"/><path class="cls-1" d="M1131.7,293.86c-7.93-1.56-16.18-1.49-24.29-2.1-.24,0-.5.4-.79.64v33.93c6.67,0,12.85.45,18.91-.16a37.76,37.76,0,0,0,11.77-3.69,13.76,13.76,0,0,0,7.61-10C1146.74,304.31,1141.29,295.74,1131.7,293.86Z"/><path class="cls-2" d="M200.66,166H230.5V99.67c1.71,0,2.84,0,4,0,6.77.38,9.16,2.63,9.87,9.42a63.73,63.73,0,0,1,.3,6.48q0,38.74,0,77.48c0,4-.42,8-.57,12-.17,4.35-1.25,8.24-5,10.52v30.74c11.13.69,21.89.39,32.35-2.88,8.78-2.75,14.64-8.46,16.39-17.68a86.35,86.35,0,0,0,1.81-14.82c.27-23.81.32-47.63.35-71.45,0-11.33,0-22.66-.4-34-.62-18.31-10-29.95-27-33.48a103.65,103.65,0,0,0-18.3-2.32c-18.31-.45-36.64-.46-55-.61a41.62,41.62,0,0,0-4.22.36v81.08c3.48,2.44,6.81,4.18,9.32,6.72S198.64,163.1,200.66,166Z"/><path class="cls-2" d="M119.47,167.46c5-.43,10-.61,15-.69,7.3-.11,14.6,0,21.8,0,2.76-8.21,8.33-12.9,15.23-15.76V69.05c-12.65,0-25-.19-37.27.06-10.31.22-20.64.67-30.91,1.53-15.36,1.28-26.41,8.64-31.06,23.89-3.75,12.31-4.11,24.85-2.1,37.56,1.29,8.12,5.81,13.17,13.34,15.88,2.33.84,4.62,1.78,7.69,3-2.31.94-3.8,1.7-5.39,2.16-12.05,3.57-19.17,12.74-19.2,28.17,0,10.49-.33,21,0,31.48a76.68,76.68,0,0,0,2.23,15.72c2,8.27,7.45,13.64,15.66,15.86,10.58,2.86,21.38,2.24,32.38,2V215.68l-.88.4c-1.37-2.71-3.8-5.37-3.92-8.12-.45-11-.4-22-.08-33C112.07,169.81,114.28,167.91,119.47,167.46Zm-7.24-59.1c.79-6.49,3.47-8.36,10-8.6,1,0,2,0,3.49,0v38.6c-.44.23-.71.49-1,.49-11.61-.27-12-1.07-12.9-12.65A89.39,89.39,0,0,1,112.23,108.36Z"/><path class="cls-3" d="M229.74,276c-.21-31.64,0-63.3,0-94.95a11.14,11.14,0,0,0-.33-2H200.47c-4.54,9.23-6.4,11.09-15.94,15.82v5.18q0,35.73,0,71.47a24.75,24.75,0,0,1-.14,4.48,5.33,5.33,0,0,1-5.48,4.8c-4.65.21-6.66-2.24-6.65-8.34q.09-36,.19-72c0-1.82,0-3.64,0-5.66-8.19-2.71-13.7-8.14-16.39-15.73H126.44c-.09,1.25-.23,2.22-.22,3.19q.24,48.21.47,96.42a18.42,18.42,0,0,0,8.06,15.78,45,45,0,0,0,11.44,5.9c16.08,5.35,32.61,6.38,49.32,4,7.22-1.05,14.4-2.47,20.9-6.21C225,293.26,229.81,286.42,229.74,276Z"/><path class="cls-4" d="M808.74,296.45l1.19.4v41.57H833.4V280H795.81l-21.07,38.56-19.84-38.5H715.5V338.2h24.38V296.93l.8-.14,21.68,41.85h23.22C793.5,324.81,800.6,310.33,808.74,296.45Z"/><path class="cls-5" d="M549.94,338.88c2.25,0,4.5-.2,6.71-.3V280.23H533.78v38.08c-2.37-2.79-4-4.61-5.52-6.51-7.51-9.33-14.91-18.74-22.55-27.95-1.48-1.79-3.83-3.9-5.86-4-9.62-.42-19.27-.19-29.28-.19v58.46H493.2V299.92c1.33,1.43,2.12,2.2,2.82,3,8.62,10.36,17.37,20.61,25.75,31.15a11.68,11.68,0,0,0,10.7,4.85C538.28,338.68,544.11,338.92,549.94,338.88Z"/><path class="cls-5" d="M1158.57,287.42c-8-4-16.34-6.67-25.27-6.92-16.29-.45-32.59-.6-48.89-.84a23.35,23.35,0,0,0-3.07.34v58.66c19.43,0,38.56,1.25,57.58-1.51a53.68,53.68,0,0,0,21.43-7.64c7.86-5,11.28-12.55,11-21.62S1167.07,291.71,1158.57,287.42Zm-13.66,25.1a13.76,13.76,0,0,1-7.61,10,37.76,37.76,0,0,1-11.77,3.69c-6.06.61-12.24.16-18.91.16V292.4c.29-.24.55-.66.79-.64,8.11.61,16.36.54,24.29,2.1C1141.29,295.74,1146.74,304.31,1144.91,312.52Z"/><path class="cls-4" d="M447,315.12c-.09-10,0-20,0-30,0-1.62-.21-3.24-.33-5.05H421.55c0,2.16,0,4.11,0,6.07-.16,10.15-.47,20.31-.45,30.46,0,6.43-4.4,9.36-10,10.71a25.62,25.62,0,0,1-7.92.47c-10-.79-13.56-4.73-13.65-14.7-.08-9,0-18,0-27,0-1.94-.24-3.89-.37-6H364c0,11.9.08,23.23,0,34.55-.09,10.5,5,17.18,14.58,20.93,13.3,5.21,27.08,5.09,40.87,3.35a57.17,57.17,0,0,0,14.79-4.28C442.64,331.09,447.07,324.54,447,315.12Z"/><polygon class="cls-6" points="1058.46 327.17 1016.98 327.17 1016.98 314.34 1054.82 314.34 1054.82 302.77 1016.99 302.77 1016.99 291.12 1057.31 291.12 1057.31 280.14 991.25 280.14 991.25 338.26 1058.46 338.26 1058.46 327.17"/><path class="cls-7" d="M197.33,320.21v9.54C278.07,325.14,338,252.37,338.5,191.44h-8.6C316.39,266.23,270.31,307,197.33,320.21Z"/><path class="cls-7" d="M32.06,191.45h-10c3.18,39.18,20.71,70.61,48,97C95,312.45,125.41,325,159.57,330v-11q-49.65-7.59-85.66-42C49.52,253.65,37.1,224.22,32.06,191.45Z"/><path class="cls-7" d="M328,154.14h9.79C331.05,91.47,270,29,197,25.28V35.53c32.3,4,60.84,16.52,85.34,37.72C307.11,94.71,321.06,122.55,328,154.14Z"/><path class="cls-7" d="M159.59,35.82V25.46c-37.72,4.3-75.06,21.9-104,56.79-17.31,20.89-28.28,44.59-32.23,71.86h10C49.28,86.53,93.07,49,159.59,35.82Z"/><polygon class="cls-5" points="973.99 280.12 903.08 280.12 903.08 291.84 925.91 291.84 925.91 338.28 951.43 338.28 951.43 291.55 973.99 291.55 973.99 280.12"/><polygon class="cls-7" points="582.11 280.33 582.11 338.33 645.59 338.33 645.59 326.9 607.06 326.9 607.06 280.33 582.11 280.33"/><rect class="cls-7" x="859.5" y="280.09" width="24.27" height="58.35"/><rect class="cls-7" x="665.57" y="280.11" width="24.08" height="58.35"/><path class="cls-8" d="M475.67,175.73a1,1,0,0,0-1,1v92.13a2,2,0,0,0,2,2h40.89a2,2,0,0,0,2-2V176.79a1,1,0,0,0-1-1Zm39.08,89.5h0v1H479.23V180.86h35.52v1h0Z"/><rect class="cls-9" x="171.28" width="12.1" height="63.76"/><path class="cls-10" d="M177.44,188.72a15.94,15.94,0,0,0,16.21-15.52,15.58,15.58,0,0,0-15.74-15.87c-9.4-.12-16.45,6.59-16.41,15.64A15.84,15.84,0,0,0,177.44,188.72Z"/><path class="cls-10" d="M55.73,166.59C37,165.3,18.51,166,0,166.76v11.7H55.73Z"/><rect class="cls-10" x="298.89" y="166.84" width="56.38" height="11.64"/><rect class="cls-9" x="171.28" y="313.11" width="12.05" height="40.35"/><path class="cls-11" d="M668.16,356.67l-7.69-10h-7.29v20.61h5.49V355.55c3.78,3.62,7.83,6.73,9.48,11.58H674V346.67h-5.85Z"/><path class="cls-12" d="M846.46,356.48c-2.94-3.78-5.2-6.69-7.55-9.73h-7.58v20.51h5.78V354.07l10.49,13.16h4.56V346.81h-5.7Z"/><path class="cls-12" d="M1028.56,355.3l-.94.29c-2.25-2.95-4.51-5.89-6.82-8.91h-7.43v20.46h5.73V354l10.13,13.26h4.92V346.82h-5.59Z"/><path class="cls-11" d="M910.56,356.55,903,346.62h-7.5v20.66h5.71V353.94l10.27,13.25h4.84V346.77h-5.71Z"/><path class="cls-12" d="M590.27,356.64l-7.43-9.83h-7.58v20.32H581v-13l10.23,13h4.84V346.81h-5.81Z"/><path class="cls-13" d="M383.86,350.07c-1.08-3-3.62-3.6-6.43-3.6H365.09v20.78h5.84v-7.61l3.69.27,2.94,7.32h6.77l-4.08-7.48c.79-.7,1.27-1.14,1.77-1.56C384.67,355.94,385,353.12,383.86,350.07Zm-12.94,5.12c-.07-1.41-.15-2.78-.23-4.38h7.71c.12,1.43.21,2.61.35,4.38Z"/><path class="cls-11" d="M755.54,353.3h-8.69c.16-2.46.3-4.52.44-6.69h-6.07V367.3h6.09V359h8.33v8.22H762V346.72h-6.49Z"/><path class="cls-11" d="M559.66,346.15c-6.65-.16-11.32,4.1-11.48,10.5s4.36,10.85,11.05,10.88,11.27-4.29,11.23-10.69C570.43,350.64,566,346.3,559.66,346.15Zm4.86,13.17c-3.31,3.35-5.74,4-8.26,2.31a5.64,5.64,0,0,1-2-7,5.45,5.45,0,0,1,6.52-3.09C563.82,352.34,564.8,354.29,564.52,359.32Z"/><path class="cls-11" d="M815.42,346.13c-6.42.05-10.85,4.26-11,10.45-.16,6.5,4.22,10.88,10.93,10.95s11.26-4.19,11.25-10.63S822.07,346.07,815.42,346.13Zm.06,16.39a5.62,5.62,0,0,1-5.52-5.76,5.56,5.56,0,0,1,5.33-5.42,5.28,5.28,0,0,1,5.67,5.48A5.42,5.42,0,0,1,815.48,362.52Z"/><path class="cls-11" d="M447.3,346.13c-6.54-.06-11.21,4.32-11.3,10.62s4.44,10.73,11.06,10.78,11.18-4.13,11.23-10.54S453.9,346.2,447.3,346.13Zm-.14,16.41a5.59,5.59,0,0,1-5.48-5.77,5.37,5.37,0,0,1,5.77-5.41,5.44,5.44,0,0,1,5.26,5.46A5.62,5.62,0,0,1,447.16,362.54Z"/><path class="cls-11" d="M1108.41,346.13c-6.66,0-11.18,4.42-11.11,10.84s4.28,10.46,10.82,10.56c6.74.1,11.36-4.16,11.41-10.52S1115,346.13,1108.41,346.13Zm-.31,16.39a5.59,5.59,0,0,1,.27-11.18c3.28,0,5.47,2.3,5.41,5.71A5.37,5.37,0,0,1,1108.1,362.52Z"/><path class="cls-13" d="M922.92,367.27h19v-4.59H929.33v-4h8.48c-.07-1.56-.14-3.06-.21-4.57h-8.37v-3.29h12.69v-4.1h-19Z"/><path class="cls-13" d="M396.05,362.73v-3.91h8.48v-4.66h-8.48v-3.31H408.9v-4.18h-19v20.76h19.24c-.11-1.78-.2-3.34-.28-4.7Z"/><path class="cls-13" d="M970.14,355.64v4.3h4.43v2.2c-4.55,1.49-7.33,1-9.06-1.48-1.43-2.07-1.2-6.12.45-7.94,2.33-2.58,5.43-2.56,10.7.23l2.21-6c-4.69-.15-8.53-.79-12.22-.27-5.3.73-8.13,5.19-7.83,11s3.5,9.39,9.19,9.83a18.9,18.9,0,0,0,12.32-2.9c-.25-3.07-.46-5.67-.73-8.95Z"/><path class="cls-13" d="M690,355.79v4.33c3.87-.52,3.87-.52,4.25,2.08q-6.6,2.06-9-1.59c-1.41-2.17-1.14-6.17.54-7.95,2.36-2.51,5.42-2.45,10.61.26.61-1.54,1.22-3.07,2.35-5.94-4.72-.17-8.69-.84-12.48-.31-5.34.75-8,5.42-7.56,11.67.39,5.3,3.51,8.63,8.77,9.13a19.46,19.46,0,0,0,12.7-2.91c-.22-2.89-.43-5.62-.67-8.77Z"/><path class="cls-11" d="M1138.62,346.63c-4.73-.38-9.52-.08-14-.08v20.66h5.72v-7.34h3.77l3.1,7.41H1144l-4-7.09a41.4,41.4,0,0,0,2.82-3.26C1145.66,352.84,1143.43,347,1138.62,346.63Zm-8.32,8.48v-4.42H1138c.15,1.42.28,2.7.45,4.42Z"/><path class="cls-11" d="M1068.69,352.41c.72-1.81,1.37-3.43,2-5a37.27,37.27,0,0,0-4.85-.78,40.93,40.93,0,0,0-8.87.29,6.63,6.63,0,0,0-5,6.66c.34,3.15,2.57,4.48,5.37,5.07,1.79.38,3.63.53,5.39,1a18.76,18.76,0,0,1,3.34,1.74c-5,3.28-9,1.11-13-.53-.45,1.61-.9,3.19-1.52,5.41,4.13.47,7.73,1.21,11.33,1.2,6.41,0,8.69-3.14,7.42-10.66L1057,352.7C1061.42,349,1065,351,1068.69,352.41Z"/><polygon class="cls-13" points="1155.77 358.75 1164.29 358.75 1164.29 354.21 1155.86 354.21 1155.86 350.97 1168.43 350.97 1168.43 346.43 1149.39 346.43 1149.39 367.37 1168.46 367.37 1168.46 362.78 1155.77 362.78 1155.77 358.75"/><path class="cls-13" d="M768.65,367.43H787.5v-4.72H774.7c.08-1.51.15-2.72.21-3.84h8.5v-4.66h-8.65c.07-1.28.13-2.3.18-3.2h12.63v-4.64H768.65Z"/><path class="cls-11" d="M1000.19,346.66c-.36,5.17.85,10.29-.94,15.75l-6.65-.33V346.65h-6.76a7,7,0,0,1,.62,1.67c.08,3.48.06,7,.17,10.44.18,6,3.3,8.77,9.62,8.77s9.45-2.75,9.65-8.77c.14-4,0-8,0-12.1Z"/><path class="cls-12" d="M500.46,346.69c-.27,5.21,1,10.28-1,15.73l-6.68-.3V346.67h-6.41c.1,2.2.22,4.14.27,6.07.05,2.16-.09,4.33.07,6.48.4,5.64,3.54,8.29,9.65,8.3s9.25-2.47,9.58-8.25c.24-4.2.05-8.43.05-12.58Z"/><path class="cls-11" d="M615.82,346.43v5.16h8.43c-3.33,5.55-6.24,10.42-9.47,15.83h18.87v-5.3h-9.3l9.31-15.69Z"/><path class="cls-11" d="M423.78,357.67l-1.15-.17q-1.62-5.38-3.25-10.79h-6.05c2.08,7,4.1,13.74,6.14,20.56h6.46c2.42-7,4.74-13.66,7.12-20.55h-5.51C426.2,350.61,425,354.14,423.78,357.67Z"/><polygon class="cls-12" points="1074.58 351.66 1081.31 351.66 1081.31 367.14 1087.46 367.14 1087.46 351.42 1094.05 351.42 1094.05 346.25 1074.58 346.25 1074.58 351.66"/><path class="cls-12" d="M716.55,351.63h6.74v15.61h6V351.67l6.77-.33V346.4H716.55Z"/><path class="cls-11" d="M512,351.67h6.44v15.55h6.21V351.39l6.81.3v-5.42H512Z"/><polygon class="cls-13" points="469.1 346.66 462.98 346.66 462.98 367.27 481.29 367.27 481.29 362.06 469.1 362.06 469.1 346.66"/><polygon class="cls-13" points="864.84 346.71 858.78 346.71 858.78 367.28 877.07 367.28 877.07 362.3 864.84 362.3 864.84 346.71"/><rect class="cls-13" x="536.6" y="346.69" width="6.49" height="20.62"/><rect class="cls-5" x="603.2" y="346.71" width="6.08" height="20.45"/><rect class="cls-5" x="882.26" y="346.69" width="6.05" height="20.61"/><rect class="cls-13" x="639.63" y="346.75" width="6.46" height="20.52"/><path class="cls-14" d="M598.64,252.41c.74-.13,2.33,5,3.1,7,.85,2.28,1.5,5.23,2.23,7.51h21.37v-86.1H582.6V193l7.08.9a31.57,31.57,0,0,1,.88,5.2c.07,6.83.18,13.68-.14,20.49a128.34,128.34,0,0,1-1.77,16.85c-.76,4.26-3.84,6.3-8,6.3h-.38c-4.15-.12-6.94-2.53-7.61-7.09a84,84,0,0,1-1-11.42c-.14-12.66-.09-25.33-.11-38,0-1.77,0-3.55,0-5.51H534.86c0,2.24,0,3.86,0,5.49.28,13.65.43,27.31.95,41a58.34,58.34,0,0,0,2.09,14.24c3.86,12.9,11.28,22.88,24.55,27.57a31.88,31.88,0,0,0,10.63,2c8.8,0,16.19-4.51,21.57-13.33C595.56,256.17,597.35,252.36,598.64,252.41Z"/><path class="cls-15" d="M597.5,262.45c.36,1.06.69,2.15,1,3.29.22.72.44,1.43.67,2.14l1.11,3.48h30V176.85a1,1,0,0,0-1-1H582.6l-3.62-.1a1,1,0,0,0-1,1v20.58l4,.66,3.54.45a5.12,5.12,0,0,1,.06.74l0,1.75c.06,6.08.13,12.37-.15,18.46a123.12,123.12,0,0,1-1.7,16.2c-.21,1.15-.59,2.18-3,2.18h-.23c-1.57-.05-2.48-.51-2.82-2.83a79.36,79.36,0,0,1-.89-10.74c-.1-9.16-.1-18.49-.11-27.52V175.76H530.86a1,1,0,0,0-1,1v4c0,.75,0,1.43,0,2.06,0,1.28,0,2.39,0,3.53.08,3.65.14,7.31.21,11,.18,9.86.36,20.05.75,30.09a62.4,62.4,0,0,0,2.29,15.48c4.67,15.64,14,26,27.67,30.86a37.23,37.23,0,0,0,12.3,2.25C582.94,276,591.33,271.32,597.5,262.45ZM573.08,271a31.88,31.88,0,0,1-10.63-2c-13.27-4.69-20.69-14.67-24.55-27.57a58.34,58.34,0,0,1-2.09-14.24c-.52-13.65-.67-27.31-.95-41,0-1.63,0-3.25,0-5.49h36.78c0,2,0,3.74,0,5.51,0,12.66,0,25.33.11,38a84,84,0,0,0,1,11.42c.67,4.56,3.46,7,7.61,7.09h.38c4.12,0,7.2-2,8-6.3a128.34,128.34,0,0,0,1.77-16.85c.32-6.81.21-13.66.14-20.49a31.57,31.57,0,0,0-.88-5.2l-7.08-.9V180.86h42.74v86.06H604.15c-.8-2.45-1.58-5-2.41-7.47s-2-7-3.1-7c-1.43-.07-3.08,3.76-4,5.25C589.27,266.48,581.88,271,573.08,271Z"/><path class="cls-14" d="M819.3,266.18c1.15-11.67,1.87-22.29,3.18-33.1h17.93c.85,11.32,1.66,22.18,2.48,33.23H880L869.45,181H838.08c.43,7.26.83,14.17,1.26,21.34-3.55,0-6.81.12-10.09.12-2.54,0-5.11-.07-7.83-.33.41-7.23.8-14.22,1.19-21.34H791c-3.12,28.74-6.2,57.06-9.29,85.42Z"/><path class="cls-15" d="M819.3,271.18h4.53l.45-4.51c.42-4.31.79-8.49,1.14-12.53.49-5.51,1-10.79,1.52-16.06h8.83c.73,9.67,1.43,19.06,2.13,28.6l.35,4.63h47.4l-.7-5.61-10.54-85.34-.54-4.39H832.78l.31,5.3.49,8.36c.15,2.59.3,5.16.46,7.74h0c-1.64,0-3.19.06-4.76.06-.9,0-1.75,0-2.56,0,.31-5.49.61-10.89.91-16.37l.29-5.27h-41.4l-.48,4.46c-3.12,28.74-6.2,57.06-9.29,85.42l-.6,5.54H819.3Zm3.31-90.42c-.39,7.12-.78,14.11-1.19,21.34,2.72.26,5.29.33,7.83.33,3.28,0,6.54-.12,10.09-.12-.43-7.17-.83-14.08-1.26-21.34h31.37L880,266.31h-37.1c-.82-11.05-1.63-21.91-2.48-33.23H822.48c-1.31,10.81-2,21.43-3.18,33.1H781.69c3.09-28.36,6.17-56.68,9.29-85.42Z"/><path class="cls-16" d="M749.38,265.39c9.83-2,16.55-7.6,19-17.52A52.34,52.34,0,0,0,770,236.53c.41-17,.59-34,.82-50.94,0-1.59-.15-3.18-.23-4.65H734.4c0,4.81.09,9.29,0,13.77-.26,10.82-.44,21.65-1,32.45-.35,7-4.52,11.1-10.75,11.1a17.32,17.32,0,0,1-5.14-.84,52,52,0,0,1-.64-5.86c-.06-15.33,0-30.65,0-46,0-1.59,0-3.15,0-4.69H681.26v85.78H708c10,0,20,0,30-.09A60.57,60.57,0,0,0,749.38,265.39Z"/><path class="cls-15" d="M721.82,176.89a1,1,0,0,0-1-1H677.26a1,1,0,0,0-1,1v93.78a1,1,0,0,0,1,1H708c8.28,0,19.19,0,30-.09a65.91,65.91,0,0,0,12.34-1.29c12.12-2.41,20-9.74,22.89-21.21A56.17,56.17,0,0,0,775,236.65c.33-13.8.51-27.81.69-41.36q.08-4.81.13-9.63c0-1.31-.07-2.56-.15-3.67q0-.68-.09-1.32l-.2-3.78a1,1,0,0,0-1-.95h-44a1,1,0,0,0-1,1v4c0,1.53,0,3,0,4.52,0,3.16,0,6.15,0,9.13,0,2-.09,3.92-.13,5.87-.2,8.69-.4,17.67-.84,26.45-.22,4.24-2.18,6.38-5.84,6.35l-.65-.61c0-.38,0-.75,0-1.11,0-9.86,0-19.89,0-29.59V176.89ZM708,266.67H681.26V180.89h35.58c0,1.57,0,3.1,0,4.69,0,15.33,0,30.65,0,46a52,52,0,0,0,.64,5.86,17.32,17.32,0,0,0,5.14.84c6.23,0,10.4-4.15,10.75-11.1.54-10.8.72-21.63,1-32.45.11-4.48,0-9,0-13.77h36.16c.08,1.47.26,3.06.23,4.65-.23,17-.41,34-.82,50.94a52.34,52.34,0,0,1-1.57,11.34c-2.47,9.92-9.19,15.56-19,17.52A60.57,60.57,0,0,1,738,266.58C728,266.66,718,266.67,708,266.67Z"/><path class="cls-16" d="M1089.68,248.08a68.19,68.19,0,0,0,1.93-13.29c.38-16.49.45-33,.59-49.46-.06-1.44,0-2.88,0-4.5h-36.36c0,4.15.1,7.95,0,11.75-.34,11.81-.63,23.63-1.19,35.43-.29,6.14-4.75,10.22-10.42,10.22a13.67,13.67,0,0,1-5.59-1.26V181h-36v85.69h23.72q16.68,0,33.37-.1a62.62,62.62,0,0,0,10.91-1.14C1080.52,263.6,1087.39,258.19,1089.68,248.08Z"/><path class="cls-15" d="M1094.56,249.19a73.5,73.5,0,0,0,2-14.29c.31-13.28.41-26.77.52-39.81,0-3.24,0-6.48.07-9.72v-.28c0-.64,0-1.36,0-2.12s0-1.43,0-2.23l-.09-4.91h-46.26v5c0,1.34,0,2.65,0,3.93,0,2.66,0,5.18,0,7.67l-.17,5.85c-.27,9.68-.55,19.68-1,29.49-.16,3.32-2.29,5.46-5.43,5.46l-.59,0V176h-46v95.69h28.72c10,0,21.76,0,33.41-.1a67.46,67.46,0,0,0,11.78-1.22C1084,268,1092,260.72,1094.56,249.19Zm-23.9,16.24a62.62,62.62,0,0,1-10.91,1.14q-16.68.12-33.37.1h-23.72V181h36v56a13.67,13.67,0,0,0,5.59,1.26c5.67,0,10.13-4.08,10.42-10.22.56-11.8.85-23.62,1.19-35.43.11-3.8,0-7.6,0-11.75h36.36c0,1.62-.07,3.06,0,4.5-.14,16.48-.21,33-.59,49.46a68.19,68.19,0,0,1-1.93,13.29C1087.39,258.19,1080.52,263.6,1070.66,265.43Z"/><path class="cls-14" d="M982,186.26c0-1.77-.16-3.54-.25-5.38H945.67c0,6.57.13,12.87,0,19.16-.25,9.48-.52,19-1.14,28.45a10.16,10.16,0,0,1-10.35,9.76,12.81,12.81,0,0,1-5.43-1.26V180.84H892.37v85.85h27.21q14.79,0,29.59-.1a67.1,67.1,0,0,0,11.9-1.23c9.31-1.76,15.78-7.11,18.26-16.37a63.54,63.54,0,0,0,2.27-14.74C982,218.26,981.92,202.26,982,186.26Z"/><path class="cls-15" d="M987,197.93c0-3.88,0-7.76,0-11.64,0-1.38-.08-2.7-.16-4,0-.55-.07-1.11-.1-1.67l-.23-4.76H940.67v5c0,2.06,0,4.09,0,6.11,0,4.46,0,8.67-.06,12.91-.26,10.07-.53,19.14-1.13,28.26a5.18,5.18,0,0,1-5.36,5.09l-.43,0V175.84H887.37v95.85h32.21c8.16,0,18.89,0,29.63-.1A71.51,71.51,0,0,0,962,270.27c11.58-2.19,19.25-9.11,22.16-20a68.45,68.45,0,0,0,2.44-15.91C986.88,222.21,986.92,209.86,987,197.93Zm-5.36,36.32A63.54,63.54,0,0,1,979.33,249c-2.48,9.26-9,14.61-18.26,16.37a67.1,67.1,0,0,1-11.9,1.23q-14.79.12-29.59.1H892.37V180.84h36.35V237a12.81,12.81,0,0,0,5.43,1.26,10.16,10.16,0,0,0,10.35-9.76c.62-9.47.89-19,1.14-28.45.16-6.29,0-12.59,0-19.16h36.09c.09,1.84.26,3.61.25,5.38C981.92,202.26,982,218.26,981.6,234.25Z"/><path class="cls-17" d="M1161.19,84.66c-3.47,22.44-7.26,48.34-10.72,70.7a2.26,2.26,0,0,1-2.1,2.19,2.38,2.38,0,0,1-2.2-2.37s-.61-3.55-.61-3.57c-1.91-15.34-3.82-30.69-5.85-46-.93-7-2.14-14-3.22-20.95h-32.85c6.24,26.45,12.4,52.56,18.53,78.52h52.92c6.41-26.23,12.76-52.17,19.2-78.51Z"/><path class="cls-15" d="M1194.29,79.66H1156.9l-.65,4.24c-1.74,11.24-3.59,23.53-5.37,35.43-.78,5.18-1.57,10.44-2.36,15.65-1.25-10-2.53-20.06-3.85-30-.65-4.9-1.45-9.82-2.21-14.58-.35-2.16-.7-4.32-1-6.47l-.66-4.24h-43.45l1.45,6.15,6,25.33,12.56,53.19.91,3.85H1179l.93-3.82,11.86-48.46,7.35-30,1.51-6.19Zm-72.12,83.51c-6.13-26-12.29-52.07-18.53-78.52h32.85c1.08,6.95,2.29,13.93,3.22,20.95,2,15.32,3.94,30.67,5.85,46,0,0,.61,3.55.61,3.57a2.38,2.38,0,0,0,2.2,2.37,2.26,2.26,0,0,0,2.1-2.19c3.46-22.36,7.25-48.26,10.72-70.7h33.1c-6.44,26.34-12.79,52.28-19.2,78.51Z"/><path class="cls-16" d="M680.78,84.41c.08,26.82.46,52.86.46,78.91h35.38c.78-16.73-.55-33.31.73-49.54a22.2,22.2,0,0,1,5.93-.91c6.53,0,10.22,4,10.47,11.53.37,11.15.44,22.31.66,33.47,0,1.76.17,3.52.26,5.35H770.9c0-7.55.27-14.85-.07-22.13-.47-10.29-.81-20.64-2.27-30.82-1.58-11-8.09-18.86-19-22.32a47.88,47.88,0,0,0-12.2-2.4c-13.81-.61-27.63-.83-41.44-1.13-1.79,0-3.58,0-5.41,0C687.47,84.37,684.27,84.41,680.78,84.41Z"/><path class="cls-15" d="M676,119.67c.12,14.33.24,29.15.24,43.65v4a1,1,0,0,0,1,1h43.2a1,1,0,0,0,1-.95l.18-3.81c.35-7.64.28-15.27.2-22.65-.08-7.93-.15-15.48.26-23a10.12,10.12,0,0,1,1.2-.07c4.84,0,5.36,3.46,5.47,6.7.25,7.4.36,15,.47,22.26.06,3.71.12,7.43.19,11.14,0,1.3.1,2.58.18,3.82,0,.55.06,1.12.09,1.69l.19,3.79a1,1,0,0,0,1,.95h44a1,1,0,0,0,1-1v-4c0-2.32,0-4.66.05-6.92.06-5.06.12-10.28-.12-15.44l-.15-3.24c-.41-9.2-.83-18.71-2.17-28.06-1.86-13-9.81-22.37-22.4-26.38a52.29,52.29,0,0,0-13.5-2.63c-11.46-.5-23.09-.74-34.34-1l-7.2-.16c-1.64,0-3.4,0-5.52,0l-4.6,0-5.17,0h-4a1,1,0,0,0-1,1v4C675.82,96.31,675.91,108.18,676,119.67Zm20-35.25c13.81.3,27.63.52,41.44,1.13A47.88,47.88,0,0,1,749.6,88c10.87,3.46,17.38,11.27,19,22.32,1.46,10.18,1.8,20.53,2.27,30.82.34,7.28.07,14.58.07,22.13H734.67c-.09-1.83-.23-3.59-.26-5.35-.22-11.16-.29-22.32-.66-33.47-.25-7.48-3.94-11.53-10.47-11.53a22.2,22.2,0,0,0-5.93.91c-1.28,16.23,0,32.81-.73,49.54H681.24c0-26-.38-52.09-.46-78.91,3.49,0,6.69,0,9.77,0C692.38,84.37,694.17,84.38,696,84.42Z"/><path class="cls-17" d="M1038.69,163.21V114.94a10.28,10.28,0,0,1,6.33-2.2,9.44,9.44,0,0,1,9.59,8.24c.86,7.24.83,14.6,1,21.91.15,6.77,0,13.54,0,20.5h36.74c.05-17.76,1.2-35.09-1.84-52.23-2.22-12.56-9.37-21.21-22.25-24A95.08,95.08,0,0,0,1051,84.8c-14.48-.43-29-.34-43.46-.44h-4.84v78.85Z"/><path class="cls-15" d="M1038.69,168.21h5v-50.3a5.37,5.37,0,0,1,1.33-.17,4.48,4.48,0,0,1,4.62,3.83,172.66,172.66,0,0,1,.89,17.51c0,1.31,0,2.61.07,3.92.11,4.62.08,9.17.06,14,0,2.12,0,4.25,0,6.4v5h46.73v-5c0-3.7.07-7.45.13-11.08.22-13.78.44-28-2-42-2.7-15.21-11.73-24.9-26.12-28a99.75,99.75,0,0,0-18.16-2.48c-10.77-.32-21.7-.35-32.27-.39l-11.31,0h-9.87v88.85h41Zm-36-83.85h4.84c14.49.1,29,0,43.46.44a95.08,95.08,0,0,1,17.25,2.37c12.88,2.78,20,11.43,22.25,24,3,17.14,1.89,34.47,1.84,52.23h-36.74c0-7,.12-13.73,0-20.5-.16-7.31-.13-14.67-1-21.91a9.44,9.44,0,0,0-9.59-8.24,10.28,10.28,0,0,0-6.33,2.2v48.27h-36Z"/><path class="cls-14" d="M928.6,163.28V114.82a10.22,10.22,0,0,1,6.16-2.14c4.83,0,9.23,3.67,10,9.37a93.12,93.12,0,0,1,.63,11c.09,10,0,19.93,0,30.32H982c-.22-17.36.72-34.5-1.61-51.49-1.55-11.33-7.44-20.16-18.82-23.56a87.25,87.25,0,0,0-21.05-3.43c-14.3-.6-28.63-.38-42.95-.49h-5.52v78.93Z"/><path class="cls-15" d="M928.6,168.28h5V117.83a4.56,4.56,0,0,1,1.16-.15c2.1,0,4.56,1.56,5,5a86.45,86.45,0,0,1,.6,10.36c0,7.09,0,14.07,0,21.45,0,2.92,0,5.86,0,8.83v5H987.1l-.06-5.06c-.06-4.5,0-9.06,0-13.48.07-12.65.13-25.73-1.64-38.63C983.45,97,975.51,87.2,963,83.48a91.21,91.21,0,0,0-22.27-3.63c-10.26-.44-20.66-.45-30.72-.46-4.07,0-8.27,0-12.4,0H887.09v88.93H928.6ZM892.09,84.35h5.52c14.32.11,28.65-.11,42.95.49a87.25,87.25,0,0,1,21.05,3.43c11.38,3.4,17.27,12.23,18.82,23.56,2.33,17,1.39,34.13,1.61,51.49H945.37c0-10.39.06-20.35,0-30.32a93.12,93.12,0,0,0-.63-11c-.72-5.7-5.12-9.37-10-9.37a10.22,10.22,0,0,0-6.16,2.14v48.46H892.09Z"/><path class="cls-17" d="M577.45,80.42c-21.66.22-38.88,15.08-40.87,36.59-1.34,14.54-1.26,29.23-1.77,43.85,0,.76,0,1.42,0,2.31h36.83v-5.44c0-10.82,0-21.64.11-32.45a67,67,0,0,1,1-10.4c.75-4.29,3.44-6.36,7.61-6.38h.07c4.24,0,6.45,1.81,7.48,6.38a30.2,30.2,0,0,1,.78,5.91c.16,7.82.17,15.64.29,23.46,0,1.77.06,3.55.06,5.49h36.63c0-.83,0-1,0-1.49.26-12.15-.07-24.25-2.77-36.2a38,38,0,0,0-17.74-24.83c-8.24-5.13-17.28-6.81-26.81-6.81Z"/><path class="cls-15" d="M584,153.75a1,1,0,0,0,1,1h44.6a1,1,0,0,0,1-1l0-5.39c.24-11.11.09-24.24-2.89-37.42a43.09,43.09,0,0,0-20-28c-8.18-5.09-17.82-7.57-29.46-7.57h-.92A47.44,47.44,0,0,0,546.32,87a44.68,44.68,0,0,0-14.72,29.56c-1,10.43-1.2,21-1.44,31.26-.09,4.23-.19,8.6-.34,12.88l0,7.48h46.8V157.74q0-4.49,0-9c0-7.06,0-14.34.08-21.52a98.93,98.93,0,0,1,.83-11c.3-2.06.61-2.73,2.78-2.74h0c1.68,0,2.07,0,2.62,2.48a24.48,24.48,0,0,1,.66,4.91c.09,4.65.14,9.39.18,14,0,3.16.06,6.31.11,9.47Zm21.11-66.53a38,38,0,0,1,17.74,24.83c2.7,12,3,24,2.77,36.2,0,.47,0,.85,0,1.49H589c0-1.94,0-3.72-.06-5.49-.12-7.82-.13-15.64-.29-23.46a30.2,30.2,0,0,0-.78-5.91c-1-4.57-3.24-6.38-7.48-6.38h-.07c-4.17,0-6.86,2.09-7.61,6.38a67,67,0,0,0-1,10.4c-.14,10.81-.09,21.63-.11,32.45v5.44H534.81c0-1,0-1.55,0-2.31.51-14.62.43-29.31,1.77-43.85,2-21.51,19.21-36.37,40.87-36.59h.86C587.84,80.41,596.88,82.09,605.12,87.22Z"/><path class="cls-14" d="M793.47,163.2h31.2a.12.12,0,0,0,.11-.09c.32-2.48.64-4.74.89-7,1-8.92,2-17.84,2.88-26.77l.18-1.68a2.21,2.21,0,0,1,2.27-2,2.25,2.25,0,0,1,2.27,1.93c2,11.85,1.11,24,3.19,35.55a.11.11,0,0,0,.11.09h30.09a.12.12,0,0,0,.11-.12c-3.22-26.24-6.38-52-9.58-78.16a.1.1,0,0,0-.1-.1H802a.1.1,0,0,0-.11.1c-2.86,26.2-5.67,52-8.53,78.2A.1.1,0,0,0,793.47,163.2Z"/><path class="cls-15" d="M793.47,168.2h31.2a5.12,5.12,0,0,0,5.07-4.45c.1-.77.19-1.52.29-2.25.21-1.53.4-3,.57-4.46.23,2.3.53,4.62.94,6.91a5.1,5.1,0,0,0,5,4.21h30.09a5.11,5.11,0,0,0,5.07-5.73l-4.29-35-5.28-43.18a5.12,5.12,0,0,0-5.07-4.49H802a5.1,5.1,0,0,0-5.08,4.56l-8.53,78.2a5.1,5.1,0,0,0,5.08,5.66ZM802,84.78h55.09a.1.1,0,0,1,.1.1c3.2,26.11,6.36,51.92,9.58,78.16a.12.12,0,0,1-.11.12H836.57a.11.11,0,0,1-.11-.09c-2.08-11.57-1.16-23.7-3.19-35.55a2.25,2.25,0,0,0-2.27-1.93,2.21,2.21,0,0,0-2.27,2l-.18,1.68c-.91,8.93-1.9,17.85-2.88,26.77-.25,2.28-.57,4.54-.89,7a.12.12,0,0,1-.11.09h-31.2a.1.1,0,0,1-.11-.12c2.86-26.17,5.67-52,8.53-78.2A.1.1,0,0,1,802,84.78Z"/><path class="cls-16" d="M369.05,180.62v86h4.77c8.57,0,17.13,0,25.69,0,7.94,0,15.87,0,23.8-.17a131.49,131.49,0,0,0,18.84-2c6.18-1,10.84-4.65,12.83-10.61,1.71-5.15,3.25-10.59,3.53-16,.63-12.47.56-25,.57-37.47a45,45,0,0,0-4.31-19.85Zm37,59.75A33.14,33.14,0,0,1,405,234.5c-.1-15.28-.08-30.57,0-45.85a36.76,36.76,0,0,1,.8-5.16c2.26-.21,4-.53,5.58-.53h.55c7.35.34,10.65,3.44,10.81,10.83.24,10.95.29,21.92,0,32.88-.23,9.86-4,13.81-13.53,13.81C408.21,240.49,407.16,240.45,406,240.37Z"/><path class="cls-15" d="M464.08,204.31v-3.84a50.29,50.29,0,0,0-4.81-22l-1.36-2.83H365.05a1,1,0,0,0-1,1v94a1,1,0,0,0,1,1h8.77l12.84,0,12.85,0c9.58,0,16.95-.05,23.89-.17A134.6,134.6,0,0,0,443,269.45a20.5,20.5,0,0,0,16.77-14c1.69-5.09,3.46-11.11,3.78-17.28C464.08,226.88,464.08,215.41,464.08,204.31Zm-5.57,33.63c-.28,5.37-1.82,10.81-3.53,16-2,6-6.65,9.61-12.83,10.61a131.49,131.49,0,0,1-18.84,2c-7.93.14-15.86.17-23.8.17-8.56,0-17.12,0-25.69,0h-4.77v-86h85.72a45,45,0,0,1,4.31,19.85C459.07,213,459.14,225.47,458.51,237.94Z"/><path class="cls-15" d="M422.73,226.68c.26-11,.21-21.93,0-32.88-.16-7.39-3.46-10.49-10.81-10.83h-.55c-1.62,0-3.32.32-5.58.53a36.76,36.76,0,0,0-.8,5.16c0,15.28-.07,30.57,0,45.85a33.14,33.14,0,0,0,1.05,5.87c1.12.08,2.17.12,3.16.12C418.78,240.49,422.5,236.54,422.73,226.68Zm-5-.12c-.17,7.27-2.08,8.79-7.64,8.92a6.26,6.26,0,0,1-.1-1c-.11-16.15-.07-32.22,0-45.81A5,5,0,0,1,410,188c.49,0,.94-.08,1.33-.08h.3c4.89.23,6,1.29,6.06,5.95C418,205.78,418,216.46,417.73,226.56Z"/><path class="cls-18" d="M368.83,163.51h1.44q19.34,0,38.69,0,17.85,0,35.69-.13a9.23,9.23,0,0,0,6.31-3.16,16.61,16.61,0,0,0,3.77-8.41,284,284,0,0,0,1-28.87,60.73,60.73,0,0,0-2.9-15.59c-3.64-12.3-12-19.69-24.74-21.61a113.86,113.86,0,0,0-14.39-1.33c-10.64-.23-21.29-.16-31.94-.2H368.83v79.25ZM406,113.45a19.87,19.87,0,0,1,5.68-.93c6,0,9.85,3.72,10.7,11a93,93,0,0,1-.39,27.31c-1.14,6.38-3.64,8.54-10,8.71h-.58c-1.76,0-3.51-.19-5.09-.27C404.48,154.62,404.38,118.09,406,113.45Z"/><path class="cls-15" d="M364.83,168.51h5.44l13.68,0,25,0c13.88,0,25.23,0,35.73-.13a14.06,14.06,0,0,0,10.17-5c1.33-1.65,4.45-6.05,4.85-11.14a284.21,284.21,0,0,0,1-29.38A66,66,0,0,0,457.58,106c-4.21-14.25-14.17-22.94-28.79-25.13a117.65,117.65,0,0,0-15-1.39c-7.84-.17-15.79-.18-23.47-.18l-8.56,0H364.83a1,1,0,0,0-1,1v87.25A1,1,0,0,0,364.83,168.51Zm10.51-84.25h6.38c10.65,0,21.3,0,31.94.2a113.86,113.86,0,0,1,14.39,1.33c12.79,1.92,21.1,9.31,24.74,21.61a60.73,60.73,0,0,1,2.9,15.59,284,284,0,0,1-1,28.87,16.61,16.61,0,0,1-3.77,8.41,9.23,9.23,0,0,1-6.31,3.16q-17.85.15-35.69.13-19.35,0-38.69,0h-1.44V84.26Z"/><path class="cls-15" d="M411.42,159.5H412c6.39-.17,8.89-2.33,10-8.71a93,93,0,0,0,.39-27.31c-.85-7.23-4.7-11-10.7-11a19.87,19.87,0,0,0-5.68.93c-1.66,4.64-1.56,41.17.29,45.78C407.91,159.31,409.66,159.5,411.42,159.5Zm.45-5h-.45l-.88,0c-.82-8.27-.92-29-.16-36.87a10.64,10.64,0,0,1,1.34-.09h0c1.62,0,5,0,5.72,6.53a87.69,87.69,0,0,1-.34,25.85C416.38,154,415.89,154.38,411.87,154.49Z"/><path class="cls-18" d="M514.75,180.86H479.23v85.37h35.52V180.86Z"/><path class="cls-14" d="M1131.55,208.55c.42,17.8,0,35.62,0,53.43,0,1.43,0,2.8,0,4.28h33.89v-5.17q0-19.23,0-38.45c0-13.95-1-28,4.65-41.81h-42.68c.38,1.88.77,3.47,1,5.08C1129.57,193.45,1131.37,201,1131.55,208.55Z"/><path class="cls-15" d="M1127.46,175.83h-6.1l1.2,6c.13.64.26,1.24.38,1.83.24,1.11.45,2.07.58,3,.34,2.34.75,4.69,1.15,7a102.16,102.16,0,0,1,1.88,15.08c.29,12.31.2,24.87.12,37,0,5.34-.08,10.86-.09,16.29v9.29h43.89V261.1c0-11.55,0-23.77,0-38.47,0-1.81,0-3.62,0-5.43-.12-12-.23-23.37,4.31-34.48l2.81-6.89h-50.12Zm0,5h42.68c-5.65,13.82-4.66,27.86-4.65,41.81q0,19.22,0,38.45v5.17h-33.89c0-1.48,0-2.85,0-4.28,0-17.81.39-35.63,0-53.43-.18-7.57-2-15.1-3.08-22.64C1128.23,184.3,1127.84,182.71,1127.46,180.83Z"/><path class="cls-14" d="M514.76,163.27V84.66H479.27v78.61Z"/><path class="cls-15" d="M514.76,168.27h4a1,1,0,0,0,1-1V80.65a1,1,0,0,0-1-1h-43.5a1,1,0,0,0-1,1v86.62a1,1,0,0,0,1,1h39.5ZM479.27,84.66h35.49v78.61H479.27Z"/></g></g></svg>
